<svg width="172" height="32" viewBox="0 0 172 32" fill="none" xmlns="http://www.w3.org/2000/svg">
<rect width="172" height="32" rx="16" fill="#FF8A00" fill-opacity="0.2"/>
<path d="M28 26.75H20C16.35 26.75 14.25 24.65 14.25 21V11C14.25 7.35 16.35 5.25 20 5.25H28C31.65 5.25 33.75 7.35 33.75 11V21C33.75 24.65 31.65 26.75 28 26.75ZM20 6.75C17.14 6.75 15.75 8.14 15.75 11V21C15.75 23.86 17.14 25.25 20 25.25H28C30.86 25.25 32.25 23.86 32.25 21V11C32.25 8.14 30.86 6.75 28 6.75H20Z" fill="#FF8A00"/>
<path d="M21 15.11C20.83 15.11 20.66 15.08 20.5 15.01C20.04 14.81 19.75 14.36 19.75 13.87V6C19.75 5.59 20.09 5.25 20.5 5.25H27.5C27.91 5.25 28.25 5.59 28.25 6V13.86C28.25 14.36 27.96 14.81 27.5 15C27.05 15.2 26.52 15.11 26.15 14.77L24 12.8L21.85 14.78C21.61 15 21.31 15.11 21 15.11ZM24 11.21C24.3 11.21 24.61 11.32 24.85 11.54L26.75 13.29V6.75H21.25V13.29L23.15 11.54C23.39 11.32 23.7 11.21 24 11.21Z" fill="#FF8A00"/>
<path d="M29.5 18.75H25.25C24.84 18.75 24.5 18.41 24.5 18C24.5 17.59 24.84 17.25 25.25 17.25H29.5C29.91 17.25 30.25 17.59 30.25 18C30.25 18.41 29.91 18.75 29.5 18.75Z" fill="#FF8A00"/>
<path d="M29.5 22.75H21C20.59 22.75 20.25 22.41 20.25 22C20.25 21.59 20.59 21.25 21 21.25H29.5C29.91 21.25 30.25 21.59 30.25 22C30.25 22.41 29.91 22.75 29.5 22.75Z" fill="#FF8A00"/>
<path d="M53.344 22V10.944H57.296C58.1067 10.944 58.7787 11.0773 59.312 11.344C59.8453 11.6 60.2667 11.968 60.576 12.448C60.8853 12.9173 61.104 13.4827 61.232 14.144C61.36 14.7947 61.424 15.5147 61.424 16.304C61.424 17.104 61.36 17.8507 61.232 18.544C61.1147 19.2267 60.9013 19.8293 60.592 20.352C60.2827 20.8747 59.8613 21.28 59.328 21.568C58.7947 21.856 58.1173 22 57.296 22H53.344ZM54.624 20.864H57.296C57.872 20.864 58.3413 20.7413 58.704 20.496C59.0667 20.2507 59.3493 19.9147 59.552 19.488C59.7547 19.0613 59.8933 18.576 59.968 18.032C60.0533 17.488 60.096 16.912 60.096 16.304C60.096 15.7067 60.0533 15.152 59.968 14.64C59.8933 14.128 59.7547 13.68 59.552 13.296C59.3493 12.912 59.0667 12.6133 58.704 12.4C58.3413 12.1867 57.872 12.08 57.296 12.08H54.624V20.864ZM66.8209 22.16C65.9249 22.16 65.2262 22.0053 64.7249 21.696C64.2342 21.3867 63.8875 20.9173 63.6849 20.288C63.4929 19.6587 63.3969 18.864 63.3969 17.904C63.3969 16.9867 63.5035 16.2293 63.7169 15.632C63.9409 15.0347 64.3035 14.5867 64.8049 14.288C65.3062 13.9893 65.9782 13.84 66.8209 13.84C67.6742 13.84 68.3515 13.9893 68.8529 14.288C69.3542 14.5867 69.7115 15.0347 69.9249 15.632C70.1489 16.2293 70.2609 16.9867 70.2609 17.904C70.2609 18.864 70.1595 19.6587 69.9569 20.288C69.7649 20.9173 69.4182 21.3867 68.9169 21.696C68.4262 22.0053 67.7275 22.16 66.8209 22.16ZM66.8209 21.088C67.4395 21.088 67.9035 20.9813 68.2129 20.768C68.5222 20.544 68.7249 20.1973 68.8209 19.728C68.9275 19.2587 68.9809 18.6507 68.9809 17.904C68.9809 17.168 68.9169 16.5813 68.7889 16.144C68.6609 15.7067 68.4422 15.392 68.1329 15.2C67.8235 15.008 67.3862 14.912 66.8209 14.912C66.2662 14.912 65.8289 15.008 65.5089 15.2C65.1995 15.392 64.9809 15.7067 64.8529 16.144C64.7249 16.5813 64.6609 17.168 64.6609 17.904C64.6609 18.6507 64.7089 19.2587 64.8049 19.728C64.9115 20.1973 65.1195 20.544 65.4289 20.768C65.7382 20.9813 66.2022 21.088 66.8209 21.088ZM75.4776 22.16C74.635 22.16 73.9736 22.0213 73.4936 21.744C73.0136 21.456 72.6723 20.9973 72.4696 20.368C72.2776 19.7387 72.1816 18.9067 72.1816 17.872C72.1816 16.9013 72.2883 16.1227 72.5016 15.536C72.7256 14.9387 73.083 14.5067 73.5736 14.24C74.0643 13.9733 74.7043 13.84 75.4936 13.84C75.675 13.84 75.8936 13.856 76.1496 13.888C76.4163 13.9093 76.6883 13.9413 76.9656 13.984C77.243 14.016 77.483 14.048 77.6856 14.08L77.6376 15.104C77.4563 15.0827 77.2483 15.0613 77.0136 15.04C76.779 15.0187 76.5496 15.0027 76.3256 14.992C76.1016 14.9707 75.915 14.96 75.7656 14.96C75.1576 14.96 74.683 15.056 74.3416 15.248C74.011 15.44 73.7763 15.7493 73.6376 16.176C73.5096 16.592 73.4456 17.1573 73.4456 17.872C73.4456 18.6507 73.5043 19.2747 73.6216 19.744C73.739 20.2027 73.963 20.5333 74.2936 20.736C74.6243 20.9387 75.115 21.04 75.7656 21.04C75.915 21.04 76.1016 21.0347 76.3256 21.024C76.5603 21.0027 76.795 20.9813 77.0296 20.96C77.275 20.9387 77.4883 20.9227 77.6696 20.912L77.7016 21.936C77.4883 21.968 77.243 22 76.9656 22.032C76.6883 22.064 76.4163 22.0907 76.1496 22.112C75.883 22.144 75.659 22.16 75.4776 22.16ZM82.2184 22.16C81.5357 22.16 81.013 22.0213 80.6504 21.744C80.2877 21.4667 80.037 21.0347 79.8984 20.448C79.7704 19.8613 79.7064 19.104 79.7064 18.176V14H80.9384V18.176C80.9384 18.88 80.9704 19.44 81.0344 19.856C81.109 20.272 81.2637 20.576 81.4984 20.768C81.733 20.9493 82.085 21.04 82.5544 21.04C83.0237 21.04 83.4504 20.976 83.8344 20.848C84.2184 20.72 84.5277 20.592 84.7624 20.464V14H85.9944V22H84.7624V21.44C84.421 21.632 84.0477 21.8027 83.6424 21.952C83.2477 22.0907 82.773 22.16 82.2184 22.16ZM88.602 22V14H89.834V14.56C90.09 14.4107 90.4367 14.256 90.874 14.096C91.3113 13.9253 91.7327 13.84 92.138 13.84C92.6713 13.84 93.098 13.904 93.418 14.032C93.7487 14.16 94.0153 14.368 94.218 14.656C94.4313 14.5387 94.6927 14.416 95.002 14.288C95.3113 14.16 95.642 14.0533 95.994 13.968C96.3567 13.8827 96.7087 13.84 97.05 13.84C97.7753 13.84 98.33 13.968 98.714 14.224C99.1087 14.4693 99.3807 14.88 99.53 15.456C99.6793 16.032 99.754 16.8 99.754 17.76V22H98.522V17.808C98.522 17.1147 98.4793 16.56 98.394 16.144C98.3193 15.728 98.1647 15.4293 97.93 15.248C97.6953 15.056 97.338 14.96 96.858 14.96C96.4313 14.96 96.01 15.024 95.594 15.152C95.1887 15.28 94.874 15.408 94.65 15.536C94.7247 15.8133 94.7727 16.16 94.794 16.576C94.826 16.9813 94.842 17.4027 94.842 17.84V22H93.61V17.872C93.61 17.1467 93.5727 16.576 93.498 16.16C93.4233 15.7333 93.2633 15.4293 93.018 15.248C92.7833 15.056 92.426 14.96 91.946 14.96C91.5407 14.96 91.1407 15.024 90.746 15.152C90.3513 15.28 90.0473 15.408 89.834 15.536V22H88.602ZM105.109 22.16C104.309 22.16 103.674 22.0053 103.205 21.696C102.746 21.3867 102.416 20.928 102.213 20.32C102.01 19.712 101.909 18.9547 101.909 18.048C101.909 17.0347 102.048 16.224 102.325 15.616C102.602 14.9973 102.992 14.5493 103.493 14.272C103.994 13.984 104.586 13.84 105.269 13.84C106.336 13.84 107.141 14.1387 107.685 14.736C108.229 15.3227 108.501 16.272 108.501 17.584L108.437 18.528H103.173C103.184 19.36 103.338 19.9893 103.637 20.416C103.936 20.8427 104.474 21.056 105.253 21.056C105.552 21.056 105.877 21.0507 106.229 21.04C106.592 21.0187 106.949 20.9973 107.301 20.976C107.653 20.9547 107.952 20.9333 108.197 20.912L108.229 21.888C107.973 21.9307 107.658 21.9733 107.285 22.016C106.922 22.0587 106.549 22.0907 106.165 22.112C105.781 22.144 105.429 22.16 105.109 22.16ZM103.173 17.52H107.253C107.253 16.5387 107.093 15.856 106.773 15.472C106.464 15.0773 105.962 14.88 105.269 14.88C104.597 14.88 104.08 15.0827 103.717 15.488C103.354 15.8933 103.173 16.5707 103.173 17.52ZM110.655 22V14H111.887V14.56C112.068 14.4533 112.292 14.3467 112.559 14.24C112.836 14.1333 113.13 14.0427 113.439 13.968C113.748 13.8827 114.047 13.84 114.335 13.84C115.071 13.84 115.631 13.9733 116.015 14.24C116.41 14.496 116.682 14.912 116.831 15.488C116.98 16.064 117.055 16.8213 117.055 17.76V22H115.807V17.808C115.807 17.1147 115.764 16.56 115.679 16.144C115.604 15.728 115.444 15.4293 115.199 15.248C114.964 15.056 114.602 14.96 114.111 14.96C113.844 14.96 113.567 14.992 113.279 15.056C113.002 15.1093 112.74 15.184 112.495 15.28C112.25 15.3653 112.047 15.4507 111.887 15.536V22H110.655ZM122.188 22.176C121.634 22.176 121.191 22.0907 120.86 21.92C120.54 21.7493 120.311 21.456 120.172 21.04C120.034 20.6133 119.964 20.016 119.964 19.248V15.072H118.828V14H119.964V11.552H121.196V14H123.708V15.072H121.196V18.88C121.196 19.4453 121.218 19.888 121.26 20.208C121.314 20.5173 121.42 20.736 121.58 20.864C121.74 20.992 121.991 21.056 122.332 21.056C122.439 21.056 122.578 21.0507 122.748 21.04C122.919 21.0293 123.09 21.0187 123.26 21.008C123.442 20.9867 123.602 20.9707 123.74 20.96L123.82 22C123.586 22.032 123.308 22.0693 122.988 22.112C122.668 22.1547 122.402 22.176 122.188 22.176ZM127.218 22.16C126.482 22.16 125.922 21.952 125.538 21.536C125.154 21.12 124.962 20.512 124.962 19.712C124.962 19.1893 125.053 18.7627 125.234 18.432C125.415 18.1013 125.687 17.8507 126.05 17.68C126.423 17.4987 126.882 17.3867 127.426 17.344L129.89 17.104V16.416C129.89 15.872 129.767 15.488 129.522 15.264C129.287 15.04 128.935 14.928 128.466 14.928C128.199 14.928 127.879 14.9387 127.506 14.96C127.143 14.9813 126.781 15.008 126.418 15.04C126.055 15.072 125.735 15.104 125.458 15.136L125.394 14.192C125.65 14.1387 125.959 14.0853 126.322 14.032C126.685 13.9787 127.063 13.936 127.458 13.904C127.853 13.8613 128.215 13.84 128.546 13.84C129.154 13.84 129.65 13.936 130.034 14.128C130.418 14.3093 130.695 14.592 130.866 14.976C131.047 15.3493 131.138 15.8293 131.138 16.416V20.464C131.159 20.6987 131.25 20.8693 131.41 20.976C131.581 21.0827 131.794 21.152 132.05 21.184L132.002 22.16C131.767 22.16 131.554 22.144 131.362 22.112C131.17 22.0907 130.989 22.0533 130.818 22C130.679 21.9467 130.546 21.8827 130.418 21.808C130.301 21.7333 130.183 21.6427 130.066 21.536C129.863 21.6213 129.602 21.712 129.282 21.808C128.973 21.904 128.637 21.984 128.274 22.048C127.922 22.1227 127.57 22.16 127.218 22.16ZM127.426 21.12C127.714 21.12 128.013 21.0933 128.322 21.04C128.631 20.9867 128.925 20.9227 129.202 20.848C129.479 20.7733 129.709 20.704 129.89 20.64V18.032L127.57 18.256C127.09 18.2987 126.743 18.4373 126.53 18.672C126.327 18.9067 126.226 19.2427 126.226 19.68C126.226 20.128 126.327 20.48 126.53 20.736C126.733 20.992 127.031 21.12 127.426 21.12ZM136.429 22.176C135.874 22.176 135.432 22.0907 135.101 21.92C134.781 21.7493 134.552 21.456 134.413 21.04C134.274 20.6133 134.205 20.016 134.205 19.248V15.072H133.069V14H134.205V11.552H135.437V14H137.949V15.072H135.437V18.88C135.437 19.4453 135.458 19.888 135.501 20.208C135.554 20.5173 135.661 20.736 135.821 20.864C135.981 20.992 136.232 21.056 136.573 21.056C136.68 21.056 136.818 21.0507 136.989 21.04C137.16 21.0293 137.33 21.0187 137.501 21.008C137.682 20.9867 137.842 20.9707 137.981 20.96L138.061 22C137.826 22.032 137.549 22.0693 137.229 22.112C136.909 22.1547 136.642 22.176 136.429 22.176ZM139.715 22V14H140.947V22H139.715ZM139.715 12.24V10.8H140.947V12.24H139.715ZM146.618 22.16C145.722 22.16 145.023 22.0053 144.522 21.696C144.031 21.3867 143.684 20.9173 143.482 20.288C143.29 19.6587 143.194 18.864 143.194 17.904C143.194 16.9867 143.3 16.2293 143.514 15.632C143.738 15.0347 144.1 14.5867 144.602 14.288C145.103 13.9893 145.775 13.84 146.618 13.84C147.471 13.84 148.148 13.9893 148.65 14.288C149.151 14.5867 149.508 15.0347 149.722 15.632C149.946 16.2293 150.058 16.9867 150.058 17.904C150.058 18.864 149.956 19.6587 149.754 20.288C149.562 20.9173 149.215 21.3867 148.714 21.696C148.223 22.0053 147.524 22.16 146.618 22.16ZM146.618 21.088C147.236 21.088 147.7 20.9813 148.01 20.768C148.319 20.544 148.522 20.1973 148.618 19.728C148.724 19.2587 148.778 18.6507 148.778 17.904C148.778 17.168 148.714 16.5813 148.586 16.144C148.458 15.7067 148.239 15.392 147.93 15.2C147.62 15.008 147.183 14.912 146.618 14.912C146.063 14.912 145.626 15.008 145.306 15.2C144.996 15.392 144.778 15.7067 144.65 16.144C144.522 16.5813 144.458 17.168 144.458 17.904C144.458 18.6507 144.506 19.2587 144.602 19.728C144.708 20.1973 144.916 20.544 145.226 20.768C145.535 20.9813 145.999 21.088 146.618 21.088ZM152.314 22V14H153.546V14.56C153.728 14.4533 153.952 14.3467 154.218 14.24C154.496 14.1333 154.789 14.0427 155.098 13.968C155.408 13.8827 155.706 13.84 155.994 13.84C156.73 13.84 157.29 13.9733 157.674 14.24C158.069 14.496 158.341 14.912 158.49 15.488C158.64 16.064 158.714 16.8213 158.714 17.76V22H157.466V17.808C157.466 17.1147 157.424 16.56 157.338 16.144C157.264 15.728 157.104 15.4293 156.858 15.248C156.624 15.056 156.261 14.96 155.77 14.96C155.504 14.96 155.226 14.992 154.938 15.056C154.661 15.1093 154.4 15.184 154.154 15.28C153.909 15.3653 153.706 15.4507 153.546 15.536V22H152.314Z" fill="#FF8A00"/>
</svg>
