<svg width="132" height="32" viewBox="0 0 132 32" fill="none" xmlns="http://www.w3.org/2000/svg">
<rect width="132" height="32" rx="16" fill="#2FB93C" fill-opacity="0.2"/>
<path d="M24 20.75C23.6 20.75 23.2 20.72 22.82 20.65C20.7 20.34 18.77 19.12 17.55 17.31C16.7 16.03 16.25 14.54 16.25 13C16.25 8.73 19.73 5.25 24 5.25C28.27 5.25 31.75 8.73 31.75 13C31.75 14.54 31.3 16.03 30.45 17.31C29.22 19.13 27.29 20.34 25.15 20.66C24.8 20.72 24.4 20.75 24 20.75ZM24 6.75C20.55 6.75 17.75 9.55 17.75 13C17.75 14.25 18.11 15.45 18.79 16.47C19.78 17.93 21.33 18.91 23.05 19.16C23.69 19.27 24.32 19.27 24.91 19.16C26.66 18.91 28.21 17.92 29.2 16.46C29.88 15.44 30.24 14.24 30.24 12.99C30.25 9.54999 27.45 6.75 24 6.75Z" fill="#2FB93C"/>
<path d="M18.4698 26.59C18.3298 26.59 18.1998 26.57 18.0598 26.54C17.4098 26.39 16.9098 25.89 16.7598 25.24L16.4098 23.77C16.3898 23.68 16.3198 23.61 16.2198 23.58L14.5698 23.19C13.9498 23.04 13.4598 22.58 13.2898 21.97C13.1198 21.36 13.2898 20.7 13.7398 20.25L17.6398 16.35C17.7998 16.19 18.0198 16.11 18.2398 16.13C18.4598 16.15 18.6598 16.27 18.7898 16.46C19.7798 17.92 21.3298 18.91 23.0598 19.16C23.6998 19.27 24.3298 19.27 24.9198 19.16C26.6698 18.91 28.2198 17.92 29.2098 16.46C29.3298 16.27 29.5398 16.15 29.7598 16.13C29.9798 16.11 30.1998 16.19 30.3598 16.35L34.2598 20.25C34.7098 20.7 34.8798 21.36 34.7098 21.97C34.5398 22.58 34.0398 23.05 33.4298 23.19L31.7798 23.58C31.6898 23.6 31.6198 23.67 31.5898 23.77L31.2398 25.24C31.0898 25.89 30.5898 26.39 29.9398 26.54C29.2898 26.7 28.6198 26.47 28.1998 25.96L23.9998 21.13L19.7998 25.97C19.4598 26.37 18.9798 26.59 18.4698 26.59ZM18.0898 18.03L14.7998 21.32C14.7098 21.41 14.7198 21.51 14.7398 21.57C14.7498 21.62 14.7998 21.72 14.9198 21.74L16.5698 22.13C17.2198 22.28 17.7198 22.78 17.8698 23.43L18.2198 24.9C18.2498 25.03 18.3498 25.07 18.4098 25.09C18.4698 25.1 18.5698 25.11 18.6598 25.01L22.4898 20.6C20.7898 20.27 19.2298 19.36 18.0898 18.03ZM25.5098 20.59L29.3398 24.99C29.4298 25.1 29.5398 25.1 29.5998 25.08C29.6598 25.07 29.7498 25.02 29.7898 24.89L30.1398 23.42C30.2898 22.77 30.7898 22.27 31.4398 22.12L33.0898 21.73C33.2098 21.7 33.2598 21.61 33.2698 21.56C33.2898 21.51 33.2998 21.4 33.2098 21.31L29.9198 18.02C28.7698 19.35 27.2198 20.26 25.5098 20.59Z" fill="#2FB93C"/>
<path d="M25.8901 16.89C25.6301 16.89 25.3201 16.82 24.9501 16.6L24.0001 16.03L23.0501 16.59C22.1801 17.11 21.6101 16.81 21.4001 16.66C21.1901 16.51 20.7401 16.06 20.9701 15.07L21.2101 14.04L20.4101 13.3C19.9701 12.86 19.8101 12.33 19.9601 11.85C20.1101 11.37 20.5501 11.03 21.1701 10.93L22.2401 10.75L22.7501 9.63C23.0401 9.06 23.4901 8.73999 24.0001 8.73999C24.5101 8.73999 24.9701 9.07001 25.2501 9.64001L25.8401 10.82L26.8301 10.94C27.4401 11.04 27.8801 11.38 28.0401 11.86C28.1901 12.34 28.0301 12.87 27.5901 13.31L26.7601 14.14L27.0201 15.07C27.2501 16.06 26.8001 16.51 26.5901 16.66C26.4801 16.75 26.2401 16.89 25.8901 16.89ZM21.6101 12.39L22.3001 13.08C22.6201 13.4 22.7801 13.94 22.6801 14.38L22.4901 15.18L23.2901 14.71C23.7201 14.46 24.3001 14.46 24.7201 14.71L25.5201 15.18L25.3401 14.38C25.2401 13.93 25.3901 13.4 25.7101 13.08L26.4001 12.39L25.5301 12.24C25.1101 12.17 24.6901 11.86 24.5001 11.48L24.0001 10.5L23.5001 11.5C23.3201 11.87 22.9001 12.19 22.4801 12.26L21.6101 12.39Z" fill="#2FB93C"/>
<path d="M56.368 22.144C56.048 22.144 55.6747 22.1227 55.248 22.08C54.8213 22.048 54.3947 22.0053 53.968 21.952C53.552 21.888 53.184 21.8347 52.864 21.792L52.992 20.736C53.3013 20.768 53.6587 20.8053 54.064 20.848C54.48 20.8907 54.8853 20.928 55.28 20.96C55.6853 20.992 56.0267 21.008 56.304 21.008C57.0827 21.008 57.664 20.832 58.048 20.48C58.432 20.128 58.624 19.5787 58.624 18.832C58.624 18.4267 58.544 18.1067 58.384 17.872C58.2347 17.6267 57.9787 17.4347 57.616 17.296C57.264 17.1467 56.7893 17.0133 56.192 16.896C55.424 16.736 54.784 16.5493 54.272 16.336C53.7707 16.112 53.392 15.7973 53.136 15.392C52.8907 14.9867 52.768 14.4373 52.768 13.744C52.768 13.0293 52.912 12.4533 53.2 12.016C53.4987 11.5787 53.9147 11.2587 54.448 11.056C54.992 10.8533 55.6213 10.752 56.336 10.752C56.656 10.752 57.0187 10.7733 57.424 10.816C57.84 10.848 58.2453 10.8907 58.64 10.944C59.0453 10.9867 59.392 11.0347 59.68 11.088L59.568 12.16C59.2587 12.1173 58.9013 12.08 58.496 12.048C58.0907 12.0053 57.7013 11.968 57.328 11.936C56.9547 11.904 56.656 11.888 56.432 11.888C55.6533 11.888 55.0613 12.032 54.656 12.32C54.2613 12.608 54.064 13.056 54.064 13.664C54.064 14.1333 54.1493 14.4907 54.32 14.736C54.5013 14.9813 54.7893 15.1733 55.184 15.312C55.5787 15.4507 56.096 15.5947 56.736 15.744C57.2907 15.872 57.7653 16.0107 58.16 16.16C58.5653 16.3093 58.896 16.496 59.152 16.72C59.4187 16.9333 59.6107 17.2053 59.728 17.536C59.856 17.856 59.92 18.256 59.92 18.736C59.92 19.5467 59.776 20.2027 59.488 20.704C59.2 21.2053 58.7893 21.5733 58.256 21.808C57.7227 22.032 57.0933 22.144 56.368 22.144ZM62.1239 22V14H63.3559V22H62.1239ZM62.1239 12.24V10.8H63.3559V12.24H62.1239ZM65.9551 22V14H67.1871V14.56C67.4431 14.4107 67.7898 14.256 68.2271 14.096C68.6645 13.9253 69.0858 13.84 69.4911 13.84C70.0245 13.84 70.4511 13.904 70.7711 14.032C71.1018 14.16 71.3685 14.368 71.5711 14.656C71.7845 14.5387 72.0458 14.416 72.3551 14.288C72.6645 14.16 72.9951 14.0533 73.3471 13.968C73.7098 13.8827 74.0618 13.84 74.4031 13.84C75.1285 13.84 75.6831 13.968 76.0671 14.224C76.4618 14.4693 76.7338 14.88 76.8831 15.456C77.0325 16.032 77.1071 16.8 77.1071 17.76V22H75.8751V17.808C75.8751 17.1147 75.8325 16.56 75.7471 16.144C75.6725 15.728 75.5178 15.4293 75.2831 15.248C75.0485 15.056 74.6911 14.96 74.2111 14.96C73.7845 14.96 73.3631 15.024 72.9471 15.152C72.5418 15.28 72.2271 15.408 72.0031 15.536C72.0778 15.8133 72.1258 16.16 72.1471 16.576C72.1791 16.9813 72.1951 17.4027 72.1951 17.84V22H70.9631V17.872C70.9631 17.1467 70.9258 16.576 70.8511 16.16C70.7765 15.7333 70.6165 15.4293 70.3711 15.248C70.1365 15.056 69.7791 14.96 69.2991 14.96C68.8938 14.96 68.4938 15.024 68.0991 15.152C67.7045 15.28 67.4005 15.408 67.1871 15.536V22H65.9551ZM79.6301 25.536V14H80.8621V14.576C81.0328 14.4693 81.2461 14.3627 81.5021 14.256C81.7688 14.1387 82.0515 14.0427 82.3501 13.968C82.6488 13.8827 82.9368 13.84 83.2141 13.84C84.2275 13.84 84.9688 14.1653 85.4381 14.816C85.9075 15.456 86.1421 16.4853 86.1421 17.904C86.1421 18.9493 86.0195 19.7867 85.7741 20.416C85.5395 21.0347 85.1608 21.4827 84.6381 21.76C84.1261 22.0267 83.4595 22.16 82.6381 22.16C82.3075 22.16 81.9715 22.1387 81.6301 22.096C81.2995 22.0533 81.0435 22.016 80.8621 21.984V25.536H79.6301ZM82.5741 21.072C83.1501 21.072 83.6035 20.9653 83.9341 20.752C84.2755 20.5387 84.5155 20.2027 84.6541 19.744C84.7928 19.2747 84.8621 18.6613 84.8621 17.904C84.8621 16.8267 84.7021 16.0693 84.3821 15.632C84.0621 15.184 83.6141 14.96 83.0381 14.96C82.7821 14.96 82.5155 14.992 82.2381 15.056C81.9715 15.12 81.7155 15.2 81.4701 15.296C81.2248 15.3813 81.0221 15.472 80.8621 15.568V20.912C81.0328 20.9333 81.2835 20.9653 81.6141 21.008C81.9448 21.0507 82.2648 21.072 82.5741 21.072ZM88.4793 22V10.528H89.7113V22H88.4793ZM92.4176 22V14H93.6496V22H92.4176ZM92.4176 12.24V10.8H93.6496V12.24H92.4176ZM99.2089 22.16C98.3662 22.16 97.7049 22.0213 97.2249 21.744C96.7449 21.456 96.4035 20.9973 96.2009 20.368C96.0089 19.7387 95.9129 18.9067 95.9129 17.872C95.9129 16.9013 96.0195 16.1227 96.2329 15.536C96.4569 14.9387 96.8142 14.5067 97.3049 14.24C97.7955 13.9733 98.4355 13.84 99.2249 13.84C99.4062 13.84 99.6249 13.856 99.8809 13.888C100.148 13.9093 100.42 13.9413 100.697 13.984C100.974 14.016 101.214 14.048 101.417 14.08L101.369 15.104C101.188 15.0827 100.98 15.0613 100.745 15.04C100.51 15.0187 100.281 15.0027 100.057 14.992C99.8329 14.9707 99.6462 14.96 99.4969 14.96C98.8889 14.96 98.4142 15.056 98.0729 15.248C97.7422 15.44 97.5075 15.7493 97.3689 16.176C97.2409 16.592 97.1769 17.1573 97.1769 17.872C97.1769 18.6507 97.2355 19.2747 97.3529 19.744C97.4702 20.2027 97.6942 20.5333 98.0249 20.736C98.3555 20.9387 98.8462 21.04 99.4969 21.04C99.6462 21.04 99.8329 21.0347 100.057 21.024C100.292 21.0027 100.526 20.9813 100.761 20.96C101.006 20.9387 101.22 20.9227 101.401 20.912L101.433 21.936C101.22 21.968 100.974 22 100.697 22.032C100.42 22.064 100.148 22.0907 99.8809 22.112C99.6142 22.144 99.3902 22.16 99.2089 22.16ZM103.518 22V14H104.75V22H103.518ZM103.518 12.24V10.8H104.75V12.24H103.518ZM109.973 22.176C109.418 22.176 108.976 22.0907 108.645 21.92C108.325 21.7493 108.096 21.456 107.957 21.04C107.818 20.6133 107.749 20.016 107.749 19.248V15.072H106.613V14H107.749V11.552H108.981V14H111.493V15.072H108.981V18.88C108.981 19.4453 109.002 19.888 109.045 20.208C109.098 20.5173 109.205 20.736 109.365 20.864C109.525 20.992 109.776 21.056 110.117 21.056C110.224 21.056 110.362 21.0507 110.533 21.04C110.704 21.0293 110.874 21.0187 111.045 21.008C111.226 20.9867 111.386 20.9707 111.525 20.96L111.605 22C111.37 22.032 111.093 22.0693 110.773 22.112C110.453 22.1547 110.186 22.176 109.973 22.176ZM114.922 25.536L115.962 22H114.762L112.506 14H113.754L115.706 20.928H116.25L118.218 14H119.466L116.17 25.536H114.922Z" fill="#2FB93C"/>
</svg>
