<svg width="300" height="273" viewBox="0 0 300 273" fill="none" xmlns="http://www.w3.org/2000/svg">
<path opacity="0.8" d="M225.671 49.7609L141.442 104.528C138.977 106.131 135.976 106.689 133.099 106.079C130.223 105.469 127.706 103.741 126.103 101.276C124.501 98.8105 123.943 95.8093 124.553 92.9327C125.163 90.0561 126.89 87.5396 129.356 85.9368L213.584 31.3792C216.05 29.7764 219.051 29.2186 221.927 29.8286C224.804 30.4385 227.321 32.1663 228.923 34.6317C230.526 37.097 231.084 40.0982 230.474 42.9748C229.864 45.8514 228.136 48.3679 225.671 49.9707V49.7609Z" fill="#FF2800"/>
<path opacity="0.8" d="M113.115 122.952L56.7949 159.463C55.5741 160.257 54.209 160.802 52.7775 161.068C51.346 161.334 49.8761 161.316 48.4517 161.014C47.0274 160.712 45.6764 160.132 44.4761 159.308C43.2757 158.484 42.2494 157.432 41.4558 156.211C40.6622 154.99 40.1168 153.625 39.8507 152.193C39.5847 150.762 39.6032 149.292 39.9052 147.868C40.2072 146.443 40.7868 145.092 41.611 143.892C42.4351 142.692 43.4875 141.665 44.7083 140.872L101.028 104.276C102.249 103.483 103.614 102.937 105.046 102.671C106.477 102.405 107.947 102.424 109.372 102.726C110.796 103.028 112.147 103.607 113.347 104.431C114.548 105.256 115.574 106.308 116.368 107.529C117.161 108.749 117.707 110.115 117.973 111.546C118.239 112.978 118.22 114.447 117.918 115.872C117.616 117.296 117.037 118.647 116.212 119.848C115.388 121.048 114.336 122.074 113.115 122.868V122.952Z" fill="#143756"/>
<path d="M186.097 36.8764L101.91 91.6439C100.689 92.4375 99.3243 92.9829 97.8928 93.2489C96.4613 93.515 94.9914 93.4965 93.567 93.1945C90.6904 92.5845 88.1739 90.8568 86.5711 88.3914C84.9683 85.926 84.4105 82.9249 85.0205 80.0482C85.6304 77.1716 87.3582 74.6551 89.8235 73.0523L174.01 18.4947C175.231 17.7011 176.596 17.1557 178.027 16.8897C179.459 16.6236 180.929 16.6421 182.353 16.9441C183.778 17.2462 185.129 17.8258 186.329 18.6499C187.529 19.474 188.556 20.5265 189.349 21.7472C190.143 22.968 190.688 24.333 190.954 25.7646C191.22 27.1961 191.202 28.666 190.9 30.0904C190.598 31.5147 190.018 32.8657 189.194 34.066C188.37 35.2664 187.317 36.2927 186.097 37.0863V36.8764Z" fill="#143756"/>
<path d="M73.5392 110.067L17.219 146.873C14.7257 148.476 11.6979 149.022 8.80163 148.393C5.90532 147.763 3.37775 146.009 1.77497 143.515C0.172188 141.022 -0.374522 137.994 0.25511 135.098C0.884743 132.202 2.63914 129.674 5.13236 128.071L61.4526 91.4759C62.6733 90.6823 64.0384 90.1369 65.4699 89.8709C66.9014 89.6048 68.3714 89.6233 69.7957 89.9253C71.2201 90.2274 72.571 90.807 73.7714 91.6311C74.9717 92.4552 75.998 93.5077 76.7916 94.7284C77.5853 95.9492 78.1307 97.3142 78.3967 98.7458C78.6628 100.177 78.6443 101.647 78.3422 103.072C78.0402 104.496 77.4606 105.847 76.6365 107.047C75.8124 108.248 74.7599 109.274 73.5392 110.067Z" fill="#FF2901"/>
<path d="M211.527 20.3833L210.981 20.7191C209.761 21.5127 208.396 22.0581 206.964 22.3241C205.533 22.5902 204.063 22.5717 202.638 22.2697C201.214 21.9676 199.863 21.388 198.663 20.5639C197.462 19.7398 196.436 18.6873 195.642 17.4666C194.849 16.2459 194.303 14.8808 194.037 13.4492C193.771 12.0177 193.79 10.5478 194.092 9.12345C194.394 7.69908 194.973 6.34815 195.797 5.14779C196.622 3.94743 197.674 2.92114 198.895 2.12752L199.44 1.79178C201.906 0.188997 204.907 -0.368767 207.784 0.24119C210.66 0.851146 213.177 2.57886 214.779 5.04425C216.382 7.50964 216.94 10.5108 216.33 13.3874C215.72 16.264 213.992 18.7805 211.527 20.3833Z" fill="#F64C4C"/>
<path opacity="0.5" d="M221.39 91.1403L137.162 145.908C134.694 147.325 131.777 147.743 129.011 147.074C126.245 146.406 123.84 144.703 122.292 142.316C120.743 139.929 120.169 137.039 120.687 134.241C121.204 131.443 122.775 128.949 125.075 127.274L209.303 72.7166C211.769 71.1138 214.77 70.556 217.647 71.166C220.523 71.776 223.04 73.5037 224.643 75.9691C226.245 78.4344 226.803 81.4356 226.193 84.3122C225.583 87.1888 223.855 89.7053 221.39 91.3081V91.1403Z" fill="#F64C4C"/>
<path opacity="0.5" d="M108.834 164.331L52.5137 200.927C50.0483 202.53 47.0472 203.088 44.1705 202.478C41.2939 201.868 38.7774 200.14 37.1746 197.675C35.5718 195.209 35.014 192.208 35.624 189.331C36.234 186.455 37.9617 183.938 40.4271 182.335L96.6214 145.698C99.0888 144.281 102.006 143.863 104.772 144.531C107.538 145.199 109.942 146.902 111.491 149.29C113.039 151.677 113.614 154.567 113.096 157.365C112.579 160.163 111.008 162.656 108.708 164.331H108.834Z" fill="#F64C4C"/>
<path opacity="0.5" d="M246.779 74.6472L246.276 74.9829C243.808 76.4002 240.891 76.8177 238.125 76.1496C235.359 75.4815 232.955 73.7786 231.406 71.3913C229.858 69.004 229.283 66.114 229.801 63.3159C230.319 60.5178 231.889 58.0247 234.189 56.3494L234.693 56.0137C235.914 55.1241 237.304 54.4927 238.778 54.1581C240.251 53.8235 241.778 53.7928 243.264 54.0677C244.749 54.3426 246.164 54.9174 247.42 55.757C248.676 56.5967 249.748 57.6836 250.571 58.9513C251.393 60.219 251.948 61.641 252.203 63.1305C252.457 64.62 252.405 66.1458 252.051 67.6146C251.696 69.0834 251.046 70.4646 250.139 71.6737C249.233 72.8828 248.09 73.8946 246.779 74.6472Z" fill="#FF9D23"/>
<path d="M71.3154 250.575L233.142 175.789" stroke="#732E54" stroke-width="8.39347" stroke-miterlimit="10" stroke-linecap="round"/>
<path d="M142.197 88.7904H190.754V249.861H142.197V88.7904Z" fill="white"/>
<path d="M217.152 26.2168H265.793V265.221H217.152V26.2168Z" fill="url(#paint0_linear_6444_114711)"/>
<path d="M214.171 29.2384H268.267V268.243H214.171V29.2384Z" stroke="#732E54" stroke-width="8.39347" stroke-miterlimit="10"/>
<path d="M142.324 96.3862H190.88V264.256H142.324V96.3862Z" fill="url(#paint1_linear_6444_114711)"/>
<path d="M139.217 92.5675H193.313V268.243H139.217V92.5675Z" stroke="#732E54" stroke-width="8.39347" stroke-miterlimit="10"/>
<path d="M66.0703 156.945H114.92V267.32H66.0703V156.945Z" fill="url(#paint2_linear_6444_114711)"/>
<path d="M64.3057 157.826H118.402V268.201H64.3057V157.826Z" stroke="#732E54" stroke-width="8.39347" stroke-miterlimit="10"/>
<path d="M266.169 59.3712C280.771 59.3712 292.608 47.5339 292.608 32.9318C292.608 18.3297 280.771 6.49231 266.169 6.49231C251.567 6.49231 239.729 18.3297 239.729 32.9318C239.729 47.5339 251.567 59.3712 266.169 59.3712Z" fill="white"/>
<path fill-rule="evenodd" clip-rule="evenodd" d="M293.406 33.8126C293.548 37.3705 292.969 40.9204 291.706 44.2494C290.442 47.5783 288.519 50.6177 286.052 53.1852C283.584 55.7526 280.624 57.7953 277.348 59.1907C274.072 60.586 270.548 61.3052 266.987 61.3052C263.427 61.3052 259.903 60.586 256.627 59.1907C253.351 57.7953 250.39 55.7526 247.923 53.1852C245.456 50.6177 243.533 47.5783 242.269 44.2494C241.005 40.9204 240.427 37.3705 240.569 33.8126C240.555 31.5142 240.865 29.2253 241.492 27.0139C242.999 32.6346 246.319 37.601 250.936 41.1431C255.553 44.6852 261.21 46.6051 267.029 46.6051C272.849 46.6051 278.505 44.6852 283.122 41.1431C287.74 37.601 291.059 32.6346 292.566 27.0139C293.124 29.2372 293.406 31.5206 293.406 33.8126Z" fill="#CEC1BC"/>
<path d="M268.562 61.8053C283.164 61.8053 295.001 49.9679 295.001 35.3658C295.001 20.7637 283.164 8.92639 268.562 8.92639C253.959 8.92639 242.122 20.7637 242.122 35.3658C242.122 49.9679 253.959 61.8053 268.562 61.8053Z" stroke="#732E54" stroke-width="8.39347" stroke-miterlimit="10"/>
<path d="M67.6631 182.671C82.2652 182.671 94.1025 170.834 94.1025 156.232C94.1025 141.63 82.2652 129.793 67.6631 129.793C53.061 129.793 41.2236 141.63 41.2236 156.232C41.2236 170.834 53.061 182.671 67.6631 182.671Z" fill="white"/>
<path fill-rule="evenodd" clip-rule="evenodd" d="M94.9417 157.113C94.9417 164.125 92.1561 170.85 87.1977 175.808C82.2394 180.767 75.5144 183.552 68.5022 183.552C61.49 183.552 54.7651 180.767 49.8067 175.808C44.8484 170.85 42.0628 164.125 42.0628 157.113C42.0386 154.811 42.3641 152.518 43.028 150.314C44.5201 155.943 47.8315 160.92 52.4465 164.471C57.0615 168.022 62.7211 169.948 68.5442 169.948C74.3672 169.948 80.0269 168.022 84.6419 164.471C89.2569 160.92 92.5683 155.943 94.0603 150.314C94.6551 152.531 94.9515 154.817 94.9417 157.113Z" fill="#CEC1BC"/>
<path d="M70.0967 185.063C84.6988 185.063 96.5361 173.226 96.5361 158.624C96.5361 144.022 84.6988 132.184 70.0967 132.184C55.4946 132.184 43.6572 144.022 43.6572 158.624C43.6572 173.226 55.4946 185.063 70.0967 185.063Z" stroke="#732E54" stroke-width="8.39347" stroke-miterlimit="10"/>
<path opacity="0.3" d="M246.611 253.47H250.682" stroke="white" stroke-width="4.19674" stroke-miterlimit="10" stroke-linecap="round"/>
<path d="M228.565 228.08V253.47H237.756" stroke="white" stroke-width="4.19674" stroke-miterlimit="10" stroke-linecap="round"/>
<path opacity="0.6" d="M228.565 209.614V214.482" stroke="white" stroke-width="4.19674" stroke-miterlimit="10" stroke-linecap="round"/>
<path d="M228.565 182.965V196.437" stroke="white" stroke-width="4.19674" stroke-miterlimit="10" stroke-linecap="round"/>
<defs>
<linearGradient id="paint0_linear_6444_114711" x1="217.152" y1="145.74" x2="265.793" y2="145.74" gradientUnits="userSpaceOnUse">
<stop offset="0.04" stop-color="#F64C4C"/>
<stop offset="1" stop-color="#FF2800"/>
</linearGradient>
<linearGradient id="paint1_linear_6444_114711" x1="142.324" y1="180.321" x2="190.88" y2="180.321" gradientUnits="userSpaceOnUse">
<stop offset="0.04" stop-color="#F64C4C"/>
<stop offset="1" stop-color="#FF2800"/>
</linearGradient>
<linearGradient id="paint2_linear_6444_114711" x1="66.0703" y1="212.132" x2="114.92" y2="212.132" gradientUnits="userSpaceOnUse">
<stop offset="0.04" stop-color="#F64C4C"/>
<stop offset="1" stop-color="#FF2800"/>
</linearGradient>
</defs>
</svg>
