<svg width="114" height="32" viewBox="0 0 114 32" fill="none" xmlns="http://www.w3.org/2000/svg">
<rect width="114" height="32" rx="16" fill="#FF8A00" fill-opacity="0.2"/>
<path d="M28.2801 26.1H24.4801C23.9201 26.1 22.7001 25.93 22.0501 25.28L19.0201 22.94L19.9401 21.75L23.0401 24.15C23.2901 24.39 23.9201 24.59 24.4801 24.59H28.2801C29.1801 24.59 30.1501 23.87 30.3501 23.06L32.7701 15.71C32.9301 15.27 32.9001 14.87 32.6901 14.58C32.4701 14.27 32.0701 14.09 31.5801 14.09H27.5801C27.0601 14.09 26.5801 13.87 26.2501 13.49C25.9101 13.1 25.7601 12.58 25.8401 12.04L26.3401 8.82999C26.4601 8.26999 26.0801 7.63999 25.5401 7.45999C25.0501 7.27999 24.4201 7.53999 24.2001 7.85999L20.1001 13.96L18.8601 13.13L22.9601 7.02999C23.5901 6.08999 24.9701 5.63999 26.0501 6.04999C27.3001 6.45999 28.1001 7.83999 27.8201 9.11999L27.3301 12.27C27.3201 12.34 27.3201 12.44 27.3901 12.52C27.4401 12.57 27.5101 12.6 27.5901 12.6H31.5901C32.5701 12.6 33.4201 13.01 33.9201 13.72C34.4101 14.41 34.5101 15.32 34.1901 16.2L31.8001 23.48C31.4301 24.93 29.8901 26.1 28.2801 26.1Z" fill="#FF8A00"/>
<path d="M17.3799 25H16.3799C14.5299 25 13.6299 24.13 13.6299 22.35V12.55C13.6299 10.77 14.5299 9.90002 16.3799 9.90002H17.3799C19.2299 9.90002 20.1299 10.77 20.1299 12.55V22.35C20.1299 24.13 19.2299 25 17.3799 25ZM16.3799 11.4C15.2899 11.4 15.1299 11.66 15.1299 12.55V22.35C15.1299 23.24 15.2899 23.5 16.3799 23.5H17.3799C18.4699 23.5 18.6299 23.24 18.6299 22.35V12.55C18.6299 11.66 18.4699 11.4 17.3799 11.4H16.3799Z" fill="#FF8A00"/>
<path d="M60 24.336L58.592 22.016C58.4213 22.0587 58.2187 22.0907 57.984 22.112C57.76 22.144 57.5253 22.16 57.28 22.16C56.128 22.16 55.232 21.952 54.592 21.536C53.9627 21.1093 53.52 20.48 53.264 19.648C53.0187 18.8053 52.896 17.7653 52.896 16.528C52.896 15.3013 53.024 14.2613 53.28 13.408C53.536 12.5547 53.9787 11.904 54.608 11.456C55.248 10.9973 56.1387 10.768 57.28 10.768C58.4213 10.768 59.3067 10.992 59.936 11.44C60.576 11.888 61.024 12.544 61.28 13.408C61.536 14.2613 61.664 15.3013 61.664 16.528C61.664 17.8187 61.5307 18.88 61.264 19.712C61.008 20.544 60.5333 21.1627 59.84 21.568L61.2 23.776L60 24.336ZM57.28 21.024C58.1227 21.024 58.7627 20.864 59.2 20.544C59.6373 20.224 59.936 19.7333 60.096 19.072C60.256 18.4 60.336 17.552 60.336 16.528C60.336 15.536 60.2507 14.6987 60.08 14.016C59.92 13.3227 59.6213 12.8 59.184 12.448C58.7467 12.0853 58.112 11.904 57.28 11.904C56.448 11.904 55.8133 12.0853 55.376 12.448C54.9387 12.8 54.6347 13.3173 54.464 14C54.304 14.6827 54.224 15.5253 54.224 16.528C54.224 17.5307 54.304 18.368 54.464 19.04C54.624 19.7013 54.9227 20.1973 55.36 20.528C55.7973 20.8587 56.4373 21.024 57.28 21.024ZM66.4465 22.16C65.7638 22.16 65.2412 22.0213 64.8785 21.744C64.5158 21.4667 64.2652 21.0347 64.1265 20.448C63.9985 19.8613 63.9345 19.104 63.9345 18.176V14H65.1665V18.176C65.1665 18.88 65.1985 19.44 65.2625 19.856C65.3372 20.272 65.4918 20.576 65.7265 20.768C65.9612 20.9493 66.3132 21.04 66.7825 21.04C67.2518 21.04 67.6785 20.976 68.0625 20.848C68.4465 20.72 68.7558 20.592 68.9905 20.464V14H70.2225V22H68.9905V21.44C68.6492 21.632 68.2758 21.8027 67.8705 21.952C67.4758 22.0907 67.0012 22.16 66.4465 22.16ZM74.5741 22.16C73.8381 22.16 73.2781 21.952 72.8941 21.536C72.5101 21.12 72.3181 20.512 72.3181 19.712C72.3181 19.1893 72.4088 18.7627 72.5901 18.432C72.7715 18.1013 73.0435 17.8507 73.4061 17.68C73.7795 17.4987 74.2381 17.3867 74.7821 17.344L77.2461 17.104V16.416C77.2461 15.872 77.1235 15.488 76.8781 15.264C76.6435 15.04 76.2915 14.928 75.8221 14.928C75.5555 14.928 75.2355 14.9387 74.8621 14.96C74.4995 14.9813 74.1368 15.008 73.7741 15.04C73.4115 15.072 73.0915 15.104 72.8141 15.136L72.7501 14.192C73.0061 14.1387 73.3155 14.0853 73.6781 14.032C74.0408 13.9787 74.4195 13.936 74.8141 13.904C75.2088 13.8613 75.5715 13.84 75.9021 13.84C76.5101 13.84 77.0061 13.936 77.3901 14.128C77.7741 14.3093 78.0515 14.592 78.2221 14.976C78.4035 15.3493 78.4941 15.8293 78.4941 16.416V20.464C78.5155 20.6987 78.6061 20.8693 78.7661 20.976C78.9368 21.0827 79.1501 21.152 79.4061 21.184L79.3581 22.16C79.1235 22.16 78.9101 22.144 78.7181 22.112C78.5261 22.0907 78.3448 22.0533 78.1741 22C78.0355 21.9467 77.9021 21.8827 77.7741 21.808C77.6568 21.7333 77.5395 21.6427 77.4221 21.536C77.2195 21.6213 76.9581 21.712 76.6381 21.808C76.3288 21.904 75.9928 21.984 75.6301 22.048C75.2781 22.1227 74.9261 22.16 74.5741 22.16ZM74.7821 21.12C75.0701 21.12 75.3688 21.0933 75.6781 21.04C75.9875 20.9867 76.2808 20.9227 76.5581 20.848C76.8355 20.7733 77.0648 20.704 77.2461 20.64V18.032L74.9261 18.256C74.4461 18.2987 74.0995 18.4373 73.8861 18.672C73.6835 18.9067 73.5821 19.2427 73.5821 19.68C73.5821 20.128 73.6835 20.48 73.8861 20.736C74.0888 20.992 74.3875 21.12 74.7821 21.12ZM81.2574 22V10.528H82.4894V22H81.2574ZM85.1958 22V14H86.4278V22H85.1958ZM85.1958 12.24V10.8H86.4278V12.24H85.1958ZM91.651 22.176C91.0963 22.176 90.6537 22.0907 90.323 21.92C90.003 21.7493 89.7737 21.456 89.635 21.04C89.4963 20.6133 89.427 20.016 89.427 19.248V15.072H88.291V14H89.427V11.552H90.659V14H93.171V15.072H90.659V18.88C90.659 19.4453 90.6803 19.888 90.723 20.208C90.7763 20.5173 90.883 20.736 91.043 20.864C91.203 20.992 91.4537 21.056 91.795 21.056C91.9017 21.056 92.0403 21.0507 92.211 21.04C92.3817 21.0293 92.5523 21.0187 92.723 21.008C92.9043 20.9867 93.0643 20.9707 93.203 20.96L93.283 22C93.0483 22.032 92.771 22.0693 92.451 22.112C92.131 22.1547 91.8643 22.176 91.651 22.176ZM96.6004 25.536L97.6404 22H96.4404L94.1844 14H95.4324L97.3844 20.928H97.9284L99.8964 14H101.144L97.8484 25.536H96.6004Z" fill="#FF8A00"/>
</svg>
