<svg width="109" height="32" viewBox="0 0 109 32" fill="none" xmlns="http://www.w3.org/2000/svg">
<rect width="109" height="32" rx="16" fill="#2FB93C" fill-opacity="0.2"/>
<path d="M30 14.75C29.59 14.75 29.25 14.41 29.25 14V12C29.25 8.85 28.36 6.75 24 6.75C19.64 6.75 18.75 8.85 18.75 12V14C18.75 14.41 18.41 14.75 18 14.75C17.59 14.75 17.25 14.41 17.25 14V12C17.25 9.1 17.95 5.25 24 5.25C30.05 5.25 30.75 9.1 30.75 12V14C30.75 14.41 30.41 14.75 30 14.75Z" fill="#2FB93C"/>
<path d="M29 26.75H19C14.59 26.75 13.25 25.41 13.25 21V19C13.25 14.59 14.59 13.25 19 13.25H29C33.41 13.25 34.75 14.59 34.75 19V21C34.75 25.41 33.41 26.75 29 26.75ZM19 14.75C15.42 14.75 14.75 15.43 14.75 19V21C14.75 24.57 15.42 25.25 19 25.25H29C32.58 25.25 33.25 24.57 33.25 21V19C33.25 15.43 32.58 14.75 29 14.75H19Z" fill="#2FB93C"/>
<path d="M20 21C19.87 21 19.74 20.97 19.62 20.92C19.49 20.87 19.39 20.8 19.29 20.71C19.11 20.52 19 20.27 19 20C19 19.87 19.03 19.74 19.08 19.62C19.13 19.49 19.2 19.39 19.29 19.29C19.39 19.2 19.49 19.13 19.62 19.08C19.98 18.92 20.43 19.01 20.71 19.29C20.8 19.39 20.87 19.5 20.92 19.62C20.97 19.74 21 19.87 21 20C21 20.26 20.89 20.52 20.71 20.71C20.52 20.89 20.26 21 20 21Z" fill="#2FB93C"/>
<path d="M24 21C23.74 21 23.48 20.89 23.29 20.71C23.11 20.52 23 20.27 23 20C23 19.87 23.02 19.74 23.08 19.62C23.13 19.5 23.2 19.39 23.29 19.29C23.52 19.06 23.87 18.95 24.19 19.02C24.26 19.03 24.32 19.05 24.38 19.08C24.44 19.1 24.5 19.13 24.56 19.17C24.61 19.2 24.66 19.25 24.71 19.29C24.8 19.39 24.87 19.5 24.92 19.62C24.97 19.74 25 19.87 25 20C25 20.27 24.89 20.52 24.71 20.71C24.66 20.75 24.61 20.79 24.56 20.83C24.5 20.87 24.44 20.9 24.38 20.92C24.32 20.95 24.26 20.97 24.19 20.98C24.13 20.99 24.06 21 24 21Z" fill="#2FB93C"/>
<path d="M28 21C27.73 21 27.48 20.89 27.29 20.71C27.2 20.61 27.13 20.5 27.08 20.38C27.03 20.26 27 20.13 27 20C27 19.74 27.11 19.48 27.29 19.29C27.34 19.25 27.39 19.21 27.44 19.17C27.5 19.13 27.56 19.1 27.62 19.08C27.68 19.05 27.74 19.03 27.8 19.02C28.13 18.95 28.47 19.06 28.71 19.29C28.89 19.48 29 19.73 29 20C29 20.13 28.97 20.26 28.92 20.38C28.87 20.51 28.8 20.61 28.71 20.71C28.52 20.89 28.26 21 28 21Z" fill="#2FB93C"/>
<path d="M56.368 22.144C56.048 22.144 55.6747 22.1227 55.248 22.08C54.8213 22.048 54.3947 22.0053 53.968 21.952C53.552 21.888 53.184 21.8347 52.864 21.792L52.992 20.736C53.3013 20.768 53.6587 20.8053 54.064 20.848C54.48 20.8907 54.8853 20.928 55.28 20.96C55.6853 20.992 56.0267 21.008 56.304 21.008C57.0827 21.008 57.664 20.832 58.048 20.48C58.432 20.128 58.624 19.5787 58.624 18.832C58.624 18.4267 58.544 18.1067 58.384 17.872C58.2347 17.6267 57.9787 17.4347 57.616 17.296C57.264 17.1467 56.7893 17.0133 56.192 16.896C55.424 16.736 54.784 16.5493 54.272 16.336C53.7707 16.112 53.392 15.7973 53.136 15.392C52.8907 14.9867 52.768 14.4373 52.768 13.744C52.768 13.0293 52.912 12.4533 53.2 12.016C53.4987 11.5787 53.9147 11.2587 54.448 11.056C54.992 10.8533 55.6213 10.752 56.336 10.752C56.656 10.752 57.0187 10.7733 57.424 10.816C57.84 10.848 58.2453 10.8907 58.64 10.944C59.0453 10.9867 59.392 11.0347 59.68 11.088L59.568 12.16C59.2587 12.1173 58.9013 12.08 58.496 12.048C58.0907 12.0053 57.7013 11.968 57.328 11.936C56.9547 11.904 56.656 11.888 56.432 11.888C55.6533 11.888 55.0613 12.032 54.656 12.32C54.2613 12.608 54.064 13.056 54.064 13.664C54.064 14.1333 54.1493 14.4907 54.32 14.736C54.5013 14.9813 54.7893 15.1733 55.184 15.312C55.5787 15.4507 56.096 15.5947 56.736 15.744C57.2907 15.872 57.7653 16.0107 58.16 16.16C58.5653 16.3093 58.896 16.496 59.152 16.72C59.4187 16.9333 59.6107 17.2053 59.728 17.536C59.856 17.856 59.92 18.256 59.92 18.736C59.92 19.5467 59.776 20.2027 59.488 20.704C59.2 21.2053 58.7893 21.5733 58.256 21.808C57.7227 22.032 57.0933 22.144 56.368 22.144ZM63.8679 22.16C63.1319 22.16 62.5719 21.952 62.1879 21.536C61.8039 21.12 61.6119 20.512 61.6119 19.712C61.6119 19.1893 61.7025 18.7627 61.8839 18.432C62.0652 18.1013 62.3372 17.8507 62.6999 17.68C63.0732 17.4987 63.5319 17.3867 64.0759 17.344L66.5399 17.104V16.416C66.5399 15.872 66.4172 15.488 66.1719 15.264C65.9372 15.04 65.5852 14.928 65.1159 14.928C64.8492 14.928 64.5292 14.9387 64.1559 14.96C63.7932 14.9813 63.4305 15.008 63.0679 15.04C62.7052 15.072 62.3852 15.104 62.1079 15.136L62.0439 14.192C62.2999 14.1387 62.6092 14.0853 62.9719 14.032C63.3345 13.9787 63.7132 13.936 64.1079 13.904C64.5025 13.8613 64.8652 13.84 65.1959 13.84C65.8039 13.84 66.2999 13.936 66.6839 14.128C67.0679 14.3093 67.3452 14.592 67.5159 14.976C67.6972 15.3493 67.7879 15.8293 67.7879 16.416V20.464C67.8092 20.6987 67.8999 20.8693 68.0599 20.976C68.2305 21.0827 68.4439 21.152 68.6999 21.184L68.6519 22.16C68.4172 22.16 68.2039 22.144 68.0119 22.112C67.8199 22.0907 67.6385 22.0533 67.4679 22C67.3292 21.9467 67.1959 21.8827 67.0679 21.808C66.9505 21.7333 66.8332 21.6427 66.7159 21.536C66.5132 21.6213 66.2519 21.712 65.9319 21.808C65.6225 21.904 65.2865 21.984 64.9239 22.048C64.5719 22.1227 64.2199 22.16 63.8679 22.16ZM64.0759 21.12C64.3639 21.12 64.6625 21.0933 64.9719 21.04C65.2812 20.9867 65.5745 20.9227 65.8519 20.848C66.1292 20.7733 66.3585 20.704 66.5399 20.64V18.032L64.2199 18.256C63.7399 18.2987 63.3932 18.4373 63.1799 18.672C62.9772 18.9067 62.8759 19.2427 62.8759 19.68C62.8759 20.128 62.9772 20.48 63.1799 20.736C63.3825 20.992 63.6812 21.12 64.0759 21.12ZM70.7911 22V15.072H69.7831V14H70.7911V13.296C70.7911 12.528 70.8605 11.9307 70.9991 11.504C71.1378 11.0773 71.3671 10.784 71.6871 10.624C72.0071 10.4533 72.4285 10.368 72.9511 10.368C73.0791 10.368 73.2551 10.3733 73.4791 10.384C73.7031 10.3947 73.9218 10.4107 74.1351 10.432C74.3485 10.4427 74.4978 10.4587 74.5831 10.48L74.5671 11.52C74.3751 11.5093 74.1405 11.504 73.8631 11.504C73.5965 11.4933 73.3778 11.488 73.2071 11.488C72.9085 11.488 72.6738 11.5413 72.5031 11.648C72.3325 11.744 72.2098 11.9253 72.1351 12.192C72.0711 12.4587 72.0391 12.832 72.0391 13.312V14H74.3431V15.072H72.0391V22H70.7911ZM78.8996 22.16C78.0996 22.16 77.465 22.0053 76.9956 21.696C76.537 21.3867 76.2063 20.928 76.0036 20.32C75.801 19.712 75.6996 18.9547 75.6996 18.048C75.6996 17.0347 75.8383 16.224 76.1156 15.616C76.393 14.9973 76.7823 14.5493 77.2836 14.272C77.785 13.984 78.377 13.84 79.0596 13.84C80.1263 13.84 80.9316 14.1387 81.4756 14.736C82.0196 15.3227 82.2916 16.272 82.2916 17.584L82.2276 18.528H76.9636C76.9743 19.36 77.129 19.9893 77.4276 20.416C77.7263 20.8427 78.265 21.056 79.0436 21.056C79.3423 21.056 79.6676 21.0507 80.0196 21.04C80.3823 21.0187 80.7396 20.9973 81.0916 20.976C81.4436 20.9547 81.7423 20.9333 81.9876 20.912L82.0196 21.888C81.7636 21.9307 81.449 21.9733 81.0756 22.016C80.713 22.0587 80.3396 22.0907 79.9556 22.112C79.5716 22.144 79.2196 22.16 78.8996 22.16ZM76.9636 17.52H81.0436C81.0436 16.5387 80.8836 15.856 80.5636 15.472C80.2543 15.0773 79.753 14.88 79.0596 14.88C78.3876 14.88 77.8703 15.0827 77.5076 15.488C77.145 15.8933 76.9636 16.5707 76.9636 17.52ZM87.0698 22.176C86.5151 22.176 86.0724 22.0907 85.7418 21.92C85.4218 21.7493 85.1924 21.456 85.0538 21.04C84.9151 20.6133 84.8458 20.016 84.8458 19.248V15.072H83.7098V14H84.8458V11.552H86.0778V14H88.5898V15.072H86.0778V18.88C86.0778 19.4453 86.0991 19.888 86.1418 20.208C86.1951 20.5173 86.3018 20.736 86.4618 20.864C86.6218 20.992 86.8724 21.056 87.2138 21.056C87.3204 21.056 87.4591 21.0507 87.6298 21.04C87.8004 21.0293 87.9711 21.0187 88.1418 21.008C88.3231 20.9867 88.4831 20.9707 88.6218 20.96L88.7018 22C88.4671 22.032 88.1898 22.0693 87.8698 22.112C87.5498 22.1547 87.2831 22.176 87.0698 22.176ZM92.0191 25.536L93.0591 22H91.8591L89.6031 14H90.8511L92.8031 20.928H93.3471L95.3151 14H96.5631L93.2671 25.536H92.0191Z" fill="#2FB93C"/>
</svg>
