<svg width="1440" height="770" viewBox="0 0 1440 770" fill="none" xmlns="http://www.w3.org/2000/svg">
<path d="M1652.03 540H1694.05C1784.09 483.85 1844 383.921 1844 270C1844 156.079 1784.09 56.1499 1694.05 0H1652.03C1753.57 47.4704 1823.92 150.521 1823.92 270C1823.92 389.479 1753.57 492.53 1652.03 540Z" fill="#FFDEE4"/>
<path d="M1357.95 540H1399.97C1298.43 492.53 1228.08 389.479 1228.08 270C1228.08 150.521 1298.43 47.4704 1399.97 0L1357.95 0C1267.91 56.1499 1208 156.079 1208 270C1208 383.921 1267.91 483.85 1357.95 540Z" fill="#FFDEE4"/>
<path fill-rule="evenodd" clip-rule="evenodd" d="M1526 373.127C1582.96 373.127 1629.14 326.956 1629.14 270C1629.14 213.045 1582.96 166.873 1526 166.873C1469.04 166.873 1422.86 213.045 1422.86 270C1422.86 326.956 1469.04 373.127 1526 373.127ZM1526 353.045C1571.87 353.045 1609.05 315.864 1609.05 270C1609.05 224.136 1571.87 186.956 1526 186.956C1480.13 186.956 1442.95 224.136 1442.95 270C1442.95 315.864 1480.13 353.045 1526 353.045Z" fill="#FFDEE4"/>
<path fill-rule="evenodd" clip-rule="evenodd" d="M1680.7 270C1680.7 355.433 1611.44 424.691 1526 424.691C1440.56 424.691 1371.3 355.433 1371.3 270C1371.3 184.567 1440.56 115.309 1526 115.309C1611.44 115.309 1680.7 184.567 1680.7 270ZM1660.62 270C1660.62 344.342 1600.35 404.608 1526 404.608C1451.65 404.608 1391.38 344.342 1391.38 270C1391.38 195.658 1451.65 135.392 1526 135.392C1600.35 135.392 1660.62 195.658 1660.62 270Z" fill="#FFDEE4"/>
<path fill-rule="evenodd" clip-rule="evenodd" d="M1526 476.254C1639.92 476.254 1732.27 383.911 1732.27 270C1732.27 156.089 1639.92 63.7458 1526 63.7458C1412.08 63.7458 1319.73 156.089 1319.73 270C1319.73 383.911 1412.08 476.254 1526 476.254ZM1526 456.172C1628.83 456.172 1712.19 372.82 1712.19 270C1712.19 167.18 1628.83 83.8285 1526 83.8285C1423.17 83.8285 1339.81 167.18 1339.81 270C1339.81 372.82 1423.17 456.172 1526 456.172Z" fill="#FFDEE4"/>
<path fill-rule="evenodd" clip-rule="evenodd" d="M1792.43 270C1792.43 417.135 1673.15 536.412 1526 536.412C1378.85 536.412 1259.57 417.135 1259.57 270C1259.57 122.865 1378.85 3.58831 1526 3.58831C1673.15 3.58831 1792.43 122.865 1792.43 270ZM1772.35 270C1772.35 406.044 1662.05 516.329 1526 516.329C1389.95 516.329 1279.65 406.044 1279.65 270C1279.65 133.956 1389.95 23.671 1526 23.671C1662.05 23.671 1772.35 133.956 1772.35 270Z" fill="#FFDEE4"/>
<path d="M39.0347 770H81.0476C171.086 713.85 231 613.921 231 500C231 386.079 171.086 286.15 81.0476 230H39.0347C140.571 277.47 210.916 380.521 210.916 500C210.916 619.479 140.571 722.53 39.0347 770Z" fill="#FFDEE4"/>
<path d="M-255.048 770H-213.035C-314.571 722.53 -384.916 619.479 -384.916 500C-384.916 380.521 -314.571 277.47 -213.035 230L-255.048 230C-345.086 286.15 -405 386.079 -405 500C-405 613.921 -345.086 713.85 -255.048 770Z" fill="#FFDEE4"/>
<path fill-rule="evenodd" clip-rule="evenodd" d="M-87 603.127C-30.04 603.127 16.1352 556.956 16.1352 500C16.1352 443.045 -30.04 396.873 -87 396.873C-143.96 396.873 -190.135 443.045 -190.135 500C-190.135 556.956 -143.96 603.127 -87 603.127ZM-87 583.045C-41.1322 583.045 -3.94907 545.864 -3.94907 500C-3.94907 454.136 -41.1322 416.956 -87 416.956C-132.868 416.956 -170.051 454.136 -170.051 500C-170.051 545.864 -132.868 583.045 -87 583.045Z" fill="#FFDEE4"/>
<path fill-rule="evenodd" clip-rule="evenodd" d="M67.7027 500C67.7027 585.433 -1.56009 654.691 -87 654.691C-172.44 654.691 -241.703 585.433 -241.703 500C-241.703 414.567 -172.44 345.309 -87 345.309C-1.56009 345.309 67.7027 414.567 67.7027 500ZM47.6185 500C47.6185 574.342 -12.6523 634.608 -87 634.608C-161.348 634.608 -221.619 574.342 -221.619 500C-221.619 425.658 -161.348 365.392 -87 365.392C-12.6523 365.392 47.6185 425.658 47.6185 500Z" fill="#FFDEE4"/>
<path fill-rule="evenodd" clip-rule="evenodd" d="M-87 706.254C26.92 706.254 119.27 613.911 119.27 500C119.27 386.089 26.92 293.746 -87 293.746C-200.92 293.746 -293.27 386.089 -293.27 500C-293.27 613.911 -200.92 706.254 -87 706.254ZM-87 686.172C15.8278 686.172 99.1861 602.82 99.1861 500C99.1861 397.18 15.8278 313.828 -87 313.828C-189.828 313.828 -273.186 397.18 -273.186 500C-273.186 602.82 -189.828 686.172 -87 686.172Z" fill="#FFDEE4"/>
<path fill-rule="evenodd" clip-rule="evenodd" d="M179.432 500C179.432 647.135 60.1466 766.412 -86.9999 766.412C-234.147 766.412 -353.432 647.135 -353.432 500C-353.432 352.865 -234.147 233.588 -86.9999 233.588C60.1466 233.588 179.432 352.865 179.432 500ZM159.348 500C159.348 636.044 49.0544 746.329 -86.9999 746.329C-223.054 746.329 -333.348 636.044 -333.348 500C-333.348 363.956 -223.054 253.671 -86.9999 253.671C49.0544 253.671 159.348 363.956 159.348 500Z" fill="#FFDEE4"/>
</svg>
