<svg width="151" height="33" viewBox="0 0 151 33" fill="none" xmlns="http://www.w3.org/2000/svg">
<path d="M108.321 28.1949H104.603C104.593 27.9339 104.575 27.696 104.575 27.4555C104.578 21.9358 104.583 16.4161 104.591 10.8964C104.644 10.0431 104.42 9.19687 103.959 8.51137C103.685 8.12345 103.333 7.8109 102.933 7.59801C102.532 7.38511 102.092 7.2776 101.648 7.28382C100.677 7.27228 99.7045 7.27583 98.7365 7.28382C98.3308 7.25728 97.9247 7.3263 97.5448 7.48634C97.1648 7.64638 96.8197 7.89382 96.5321 8.2124C96.2445 8.53098 96.021 8.91348 95.8762 9.33476C95.7313 9.75604 95.6685 10.2066 95.6917 10.6567C95.6811 16.2326 95.6755 21.8091 95.6749 27.3863V28.1665H91.8957V27.4732C91.8957 21.9701 91.8957 16.4693 91.8957 10.9709C91.9091 10.5573 91.8798 10.1434 91.8085 9.73715C91.664 9.05049 91.3165 8.43725 90.8214 7.9952C90.3262 7.55314 89.712 7.30771 89.0765 7.29802C88.0045 7.26844 86.9317 7.26844 85.8581 7.29802C85.1449 7.30435 84.4594 7.60497 83.935 8.14134C83.4106 8.6777 83.0849 9.41142 83.0213 10.1996C82.997 10.4807 82.9865 10.7631 82.9901 11.0455V28.1869H79.2429C79.2341 27.9756 79.2197 27.7919 79.2197 27.609V10.7668C79.143 8.90466 79.715 7.08121 80.8172 5.6743C81.9193 4.2674 83.4671 3.38491 85.1397 3.20972C86.8512 3.04259 88.5735 3.06727 90.2805 3.28339C91.6261 3.49542 92.8634 4.21994 93.7805 5.33287L94.2053 4.9299C95.4049 3.75638 96.9517 3.11347 98.5509 3.12362C99.8938 3.05967 101.239 3.09287 102.578 3.22303C104.176 3.42532 105.651 4.2767 106.717 5.61316C107.783 6.94962 108.366 8.67662 108.353 10.4614C108.399 16.2442 108.362 22.0287 108.36 27.8123C108.36 27.9224 108.339 28.0324 108.322 28.1975" fill="#383838"/>
<path d="M58.2608 24.0783H61.9856C62.0248 24.6268 62.0232 25.1532 62.1072 25.6653C62.2008 26.3439 62.4998 26.9669 62.9548 27.4319C63.4099 27.897 63.994 28.1764 64.6112 28.2243C65.8676 28.3091 67.1276 28.3091 68.384 28.2243C69.0785 28.1601 69.7258 27.8085 70.1974 27.2392C70.669 26.6699 70.9304 25.9246 70.9296 25.1514C70.9424 24.4348 70.9424 23.7182 70.9296 23.0016C70.9325 22.2383 70.6791 21.5011 70.2189 20.9337C69.7587 20.3662 69.1245 20.0093 68.44 19.9323C67.2744 19.8178 66.0944 19.8728 64.92 19.8577C63.4011 19.8735 61.9244 19.3034 60.7424 18.2449C59.5605 17.1864 58.7466 15.7052 58.44 14.0546C58.0912 12.2601 58.1104 10.4015 58.496 8.61626C58.8593 7.06024 59.6737 5.67997 60.8138 4.6881C61.9538 3.69622 63.3562 3.1478 64.8048 3.12732C66.1983 3.05477 67.5946 3.08828 68.984 3.22762C70.5789 3.44436 72.0455 4.30733 73.1019 5.65075C74.1582 6.99418 74.7299 8.72331 74.7072 10.506C74.7072 10.8033 74.7072 11.1007 74.7072 11.4379H70.9344C70.9344 11.122 70.9384 10.8086 70.9344 10.4971C70.9393 9.66703 70.6511 8.86783 70.1315 8.27061C69.6119 7.67338 68.9022 7.32559 68.1544 7.30172C67.0496 7.26 65.9416 7.26266 64.836 7.30172C64.1298 7.31621 63.4539 7.62291 62.9409 8.16166C62.428 8.70042 62.1149 9.43236 62.0632 10.2139C61.9858 11.1515 62.0013 12.0956 62.1096 13.0294C62.2033 13.7753 62.5398 14.4572 63.0557 14.9467C63.5715 15.4361 64.2309 15.6991 64.9096 15.686C66.2536 15.7153 67.604 15.655 68.9384 15.7925C70.4622 15.9964 71.8726 16.7891 72.9222 18.0315C73.9718 19.274 74.5935 20.8868 74.6784 22.5871C74.763 23.9762 74.7066 25.3714 74.5104 26.7464C74.2051 28.3392 73.4215 29.7697 72.2879 30.804C71.1543 31.8382 69.7378 32.4148 68.2704 32.4395C66.7425 32.5566 65.208 32.5039 63.6896 32.2824C62.1483 31.9912 60.7527 31.0952 59.757 29.7577C58.7614 28.4203 58.2321 26.7304 58.2656 24.9961V24.0827" fill="#383838"/>
<path d="M129.419 28.1975H125.693V19.91H116.78V28.1789H113.02C113.012 28.0014 112.997 27.8176 112.997 27.6366C112.994 21.853 112.994 16.0693 112.997 10.2857C113.044 8.44856 113.709 6.69745 114.86 5.37612C116.012 4.05478 117.567 3.25867 119.22 3.14406C120.767 3.04793 122.318 3.08384 123.86 3.25146C125.379 3.50201 126.77 4.33782 127.789 5.61232C128.808 6.88683 129.39 8.5187 129.433 10.2218C129.457 16.08 129.442 21.9382 129.442 27.7963C129.442 27.9073 129.432 28.0174 129.422 28.1958M125.654 15.6557C125.654 13.7838 125.729 11.9748 125.633 10.1765C125.583 9.3833 125.26 8.64157 124.732 8.10409C124.204 7.56661 123.51 7.27431 122.794 7.28739C121.739 7.26431 120.684 7.26431 119.629 7.28739C119.249 7.2897 118.874 7.37525 118.525 7.53911C118.176 7.70298 117.859 7.94191 117.593 8.24216C117.328 8.5424 117.118 8.89801 116.977 9.2885C116.836 9.67899 116.765 10.0966 116.77 10.5174C116.761 11.8346 116.77 13.1536 116.77 14.4716V15.6557H125.654Z" fill="#383838"/>
<path d="M41.0761 19.2087V28.1806H37.3065V10.6851C37.2801 9.68229 37.4389 8.68413 37.7731 7.75198C38.1073 6.81983 38.6099 5.97341 39.2499 5.2648C39.89 4.55618 40.6539 4.00035 41.4948 3.6315C42.3356 3.26265 43.2356 3.08859 44.1394 3.12001C45.4817 3.06946 46.8256 3.11067 48.1634 3.24339C49.6815 3.49325 51.0717 4.32872 52.0897 5.60301C53.1077 6.8773 53.6884 8.50888 53.7297 10.2111C53.7899 11.5624 53.7191 12.9169 53.5186 14.2514C53.2062 15.8122 52.4298 17.2111 51.3143 18.2233C50.1988 19.2354 48.8089 19.8019 47.3681 19.8318C45.7897 19.87 44.2106 19.7919 42.6322 19.6924C42.0995 19.5931 41.5781 19.4303 41.077 19.2069M45.4993 15.6778C46.0457 15.6778 46.589 15.6876 47.133 15.6778C47.8808 15.6703 48.5964 15.3392 49.1275 14.7549C49.6585 14.1707 49.963 13.3795 49.9761 12.5499C49.9929 11.854 49.9913 11.1564 49.9761 10.4596C49.9711 9.63849 49.6804 8.85128 49.1648 8.2622C48.6492 7.67312 47.9485 7.32768 47.2089 7.29796C46.0889 7.2518 44.9625 7.25269 43.8401 7.29796C43.1008 7.3275 42.4005 7.67302 41.8855 8.26226C41.3705 8.8515 41.0808 9.63884 41.077 10.4596C41.0658 11.175 41.0602 11.8913 41.077 12.6058C41.1006 13.4153 41.4024 14.1842 41.9204 14.7548C42.4385 15.3255 43.1336 15.6547 43.8634 15.6752C44.4098 15.6911 44.9529 15.6752 45.4969 15.6752" fill="#383838"/>
<path d="M146.646 19.153C144.39 20.2439 142.101 19.9057 139.863 19.7903C138.307 19.6246 136.857 18.8435 135.777 17.5897C134.697 16.3359 134.06 14.693 133.982 12.9611C133.899 11.5542 133.966 10.1414 134.182 8.75207C134.505 7.15558 135.309 5.72887 136.461 4.70671C137.613 3.68456 139.044 3.12786 140.519 3.12822C141.963 3.07053 143.409 3.11292 144.849 3.25515C146.343 3.50197 147.713 4.31985 148.722 5.56762C149.731 6.8154 150.315 8.41477 150.375 10.0897C150.421 16.002 150.393 21.9143 150.394 27.8275C150.394 27.9367 150.377 28.0441 150.366 28.1879H146.644L146.646 19.153ZM142.166 15.6798C142.712 15.6798 143.255 15.6914 143.799 15.6798C144.547 15.6696 145.261 15.335 145.789 14.7477C146.316 14.1603 146.616 13.367 146.623 12.5377C146.633 11.8412 146.633 11.1445 146.623 10.4474C146.618 9.63673 146.333 8.85892 145.827 8.27408C145.321 7.68924 144.632 7.34188 143.903 7.30351C142.765 7.24936 141.622 7.25824 140.483 7.30351C139.837 7.31459 139.216 7.57796 138.729 8.04722C138.242 8.51648 137.919 9.16152 137.819 9.86868C137.688 10.8931 137.677 11.9317 137.785 12.9593C137.867 13.7375 138.212 14.4522 138.751 14.9585C139.29 15.4648 139.982 15.7249 140.687 15.686C141.181 15.6914 141.674 15.686 142.167 15.686" fill="#383838"/>
<path d="M20.3718 16.2362C19.3397 16.1907 18.3119 16.0619 17.2966 15.851C16.1546 15.5107 15.1457 14.7618 14.4265 13.7204C13.7073 12.679 13.318 11.4033 13.319 10.0913C13.2667 8.56854 13.3052 7.04357 13.4342 5.5264C13.6415 4.15652 14.2715 2.90915 15.2163 1.99774C16.161 1.08632 17.3619 0.56751 18.6134 0.530086C20.0404 0.464701 21.4698 0.505919 22.8918 0.653463C24.1048 0.860932 25.2154 1.52846 26.0346 2.54239C26.8538 3.55632 27.3309 4.85394 27.3846 6.2143C27.4862 7.90401 27.4444 9.60058 27.2598 11.2816C27.0416 12.6124 26.4162 13.8188 25.4893 14.6973C24.5623 15.5759 23.3906 16.0727 22.1718 16.104C21.5774 16.135 20.9806 16.1084 20.3846 16.1084L20.375 16.2353" fill="#FF2800"/>
<path d="M20.3455 30.9163C19.1916 30.9139 18.0391 30.825 16.8959 30.6501C15.7816 30.3719 14.7997 29.6453 14.1401 28.6106C13.4805 27.576 13.19 26.3068 13.3247 25.0484C13.4572 23.7908 13.9959 22.629 14.841 21.7781C15.6862 20.9272 16.7805 20.4449 17.9215 20.4204C19.5749 20.4045 21.2258 20.4045 22.8743 20.4204C24.0831 20.4411 25.2378 20.9799 26.0965 21.9239C26.9553 22.8679 27.4516 24.1439 27.4815 25.4848C27.5114 26.8257 27.0725 28.1274 26.2568 29.1173C25.4412 30.1073 24.3119 30.7087 23.1055 30.7956C22.1895 30.8524 21.2655 30.8054 20.3503 30.8054C20.3521 30.8415 20.3521 30.8776 20.3503 30.9137" fill="#FF2800"/>
<path d="M9.48631 8.33739C9.49617 9.59525 9.42828 10.8524 9.28311 12.0999C9.0355 13.378 8.35673 14.5025 7.3859 15.2432C6.41507 15.9838 5.22569 16.2845 4.06151 16.0835C2.96669 15.9208 1.95966 15.3316 1.22031 14.421C0.480974 13.5105 0.0574874 12.338 0.0255079 11.1129C-0.00729207 9.23209 -0.00969206 7.34683 0.0255079 5.46422C0.0761866 4.14063 0.583558 2.88931 1.44263 1.96921C2.3017 1.04912 3.44671 0.530669 4.64071 0.521157C5.85236 0.484981 7.0289 0.97493 7.91987 1.88671C8.81084 2.79849 9.34589 4.0601 9.41111 5.40297C9.44631 6.37934 9.41671 7.36103 9.41671 8.34005L9.48631 8.33739Z" fill="#FF2800"/>
<path d="M4.67597 30.8267C3.74935 30.8005 2.85051 30.4702 2.09299 29.8775C1.33547 29.2848 0.753233 28.4564 0.419827 27.4968C0.086421 26.5372 0.016797 25.4895 0.219749 24.486C0.4227 23.4825 0.889124 22.5683 1.56011 21.8588C2.2311 21.1493 3.07655 20.6762 3.98968 20.4995C4.90282 20.3228 5.84267 20.4503 6.69055 20.8658C7.53843 21.2814 8.25629 21.9664 8.75347 22.8344C9.25066 23.7024 9.50486 24.7143 9.48397 25.7425C9.46933 26.4267 9.33334 27.1009 9.08376 27.7267C8.83418 28.3526 8.4759 28.9177 8.0294 29.3899C7.5829 29.862 7.05693 30.2319 6.48153 30.4785C5.90614 30.725 5.2926 30.8433 4.67597 30.8267Z" fill="#FF2800"/>
</svg>
