<svg width="40" height="40" viewBox="0 0 40 40" fill="none" xmlns="http://www.w3.org/2000/svg">
<circle cx="20" cy="20" r="20" fill="#202657"/>
<path d="M12 13.6263C12 13.1549 12.1802 12.766 12.5405 12.4596C12.9009 12.1532 13.3694 12 13.9459 12C14.5122 12 14.9704 12.1508 15.3205 12.4525C15.6808 12.7636 15.861 13.169 15.861 13.6687C15.861 14.1212 15.686 14.4983 15.3359 14.8C14.9756 15.1111 14.5019 15.2667 13.9151 15.2667H13.8996C13.3333 15.2667 12.8752 15.1111 12.5251 14.8C12.175 14.4889 12 14.0976 12 13.6263ZM12.2008 26V16.5535H15.6293V26H12.2008ZM17.529 26H20.9575V20.7253C20.9575 20.3953 20.9987 20.1407 21.0811 19.9616C21.2252 19.6411 21.444 19.37 21.7375 19.1485C22.0309 18.9269 22.399 18.8162 22.8417 18.8162C23.9949 18.8162 24.5714 19.5279 24.5714 20.9515V26H28V20.5838C28 19.1885 27.6396 18.1303 26.9189 17.4091C26.1982 16.6879 25.2458 16.3273 24.0618 16.3273C22.7336 16.3273 21.6988 16.8505 20.9575 17.897V17.9253H20.9421L20.9575 17.897V16.5535H17.529C17.5495 16.8552 17.5598 17.7933 17.5598 19.3677C17.5598 20.9421 17.5495 23.1529 17.529 26Z" fill="white"/>
</svg>
