<svg width="40" height="40" viewBox="0 0 40 40" fill="none" xmlns="http://www.w3.org/2000/svg">
<circle cx="20" cy="20" r="20" fill="#202657"/>
<path d="M29 14.6574C28.3306 14.9385 27.6174 15.1248 26.8737 15.2152C27.6388 14.778 28.2226 14.0909 28.4971 13.2628C27.7839 13.6698 26.9964 13.9574 26.1571 14.1178C25.4799 13.4275 24.5146 13 23.4616 13C21.4186 13 19.7739 14.5874 19.7739 16.5334C19.7739 16.8134 19.7986 17.0826 19.8594 17.3389C16.7915 17.1957 14.0769 15.7882 12.2533 13.644C11.9349 14.1728 11.7481 14.778 11.7481 15.4295C11.7481 16.6529 12.4062 17.7374 13.3872 18.3652C12.7944 18.3545 12.2127 18.1897 11.72 17.9302C11.72 17.9409 11.72 17.9549 11.72 17.9689C11.72 19.6855 12.9991 21.1114 14.6765 21.4398C14.3761 21.5185 14.0487 21.5562 13.709 21.5562C13.4727 21.5562 13.2342 21.5432 13.0104 21.4958C13.4885 22.8948 14.8453 23.9232 16.4585 23.9566C15.203 24.8968 13.6089 25.4632 11.8831 25.4632C11.5805 25.4632 11.2902 25.4503 11 25.4148C12.6346 26.4238 14.5719 27 16.661 27C23.4515 27 27.164 21.6154 27.164 16.948C27.164 16.7918 27.1584 16.6411 27.1505 16.4914C27.8829 15.9938 28.4982 15.3725 29 14.6574Z" fill="white"/>
</svg>
