<svg width="40" height="40" viewBox="0 0 40 40" fill="none" xmlns="http://www.w3.org/2000/svg">
<path d="M20 40C31.0457 40 40 31.0457 40 20C40 8.95431 31.0457 0 20 0C8.95431 0 0 8.95431 0 20C0 31.0457 8.95431 40 20 40Z" fill="#202657"/>
<path d="M24.5 13H15.5C12.8 13 11 14.75 11 17.375V22.625C11 25.25 12.8 27 15.5 27H24.5C27.2 27 29 25.25 29 22.625V17.375C29 14.75 27.2 13 24.5 13ZM21.701 20.9012L19.478 22.1962C18.578 22.7213 17.84 22.3187 17.84 21.295V18.6962C17.84 17.6725 18.578 17.27 19.478 17.795L21.701 19.09C22.556 19.5975 22.556 20.4025 21.701 20.9012Z" fill="white"/>
</svg>
