<svg width="142" height="82" viewBox="0 0 142 82" fill="none" xmlns="http://www.w3.org/2000/svg">
<path d="M134.383 49.3986C129.389 62.3323 119.999 73.6636 106.956 78.6435C105.26 79.2901 103.527 79.8387 101.768 80.2866C92.4628 82.6594 82.2828 81.834 73.7049 77.5103C70.0643 75.6738 66.7446 73.2471 63.0908 71.4369C59.437 69.6268 55.2646 68.442 51.2877 69.3355C47.8636 70.1049 44.9747 72.3096 42.0659 74.2736C35.2089 78.9039 26.964 82.5682 18.8444 80.9779C15.1082 80.247 11.4291 78.2225 9.69398 74.8385C5.85888 67.3572 13.0917 58.4625 11.6269 50.1888C10.6896 44.8935 6.40832 40.9281 3.74683 36.2549C-0.808033 28.2615 -0.269581 17.6434 5.07098 10.1534C10.4115 2.66326 20.2707 -1.30984 29.3101 0.38931C40.333 2.46214 48.6669 11.7921 59.3854 15.0936C66.0886 17.1566 73.3665 16.5411 79.7686 13.8242C90.1123 9.43347 104.323 2.69953 115.964 3.7964C122.154 4.38 128.225 7.12765 132.31 11.8195C137.475 17.7424 139.024 26.1513 138.162 33.9612C137.571 39.248 136.301 44.4365 134.383 49.3986Z" fill="url(#paint0_linear_5324_110231)"/>
<path d="M137.707 59.6287C137.477 59.6284 137.249 59.6007 137.026 59.5463C136.32 59.3729 135.708 58.9368 135.313 58.327C134.918 57.7173 134.771 56.9798 134.902 56.2653C135.032 55.5508 135.431 54.913 136.015 54.4822C136.6 54.0515 137.327 53.8602 138.049 53.9474C138.77 54.0346 139.43 54.3938 139.896 54.9516C140.361 55.5094 140.596 56.2238 140.552 56.9488C140.508 57.6739 140.19 58.3549 139.661 58.853C139.132 59.351 138.433 59.6285 137.707 59.6287ZM137.707 55.2127C137.329 55.2141 136.965 55.3537 136.683 55.605C136.401 55.8564 136.22 56.2022 136.175 56.5774C136.13 56.9526 136.224 57.3312 136.439 57.642C136.654 57.9528 136.975 58.1743 137.342 58.2648C137.555 58.3158 137.775 58.3213 137.99 58.2809C138.205 58.2405 138.408 58.1551 138.588 58.0303C138.767 57.9056 138.918 57.7442 139.03 57.557C139.143 57.3697 139.214 57.1607 139.24 56.9438C139.266 56.7269 139.246 56.507 139.181 56.2985C139.116 56.09 139.007 55.8976 138.862 55.7341C138.717 55.5706 138.54 55.4396 138.34 55.3497C138.141 55.2598 137.925 55.2131 137.707 55.2127Z" fill="#E7F6FF"/>
<path d="M135.105 62.6524C135.267 61.9841 134.857 61.3109 134.189 61.1488C133.52 60.9867 132.847 61.3971 132.685 62.0655C132.523 62.7338 132.933 63.407 133.602 63.5691C134.27 63.7312 134.943 63.3208 135.105 62.6524Z" fill="#E7F6FF"/>
<path d="M6.58507 59.3573C5.83019 59.3408 5.11227 59.0272 4.58718 58.4846C4.06208 57.942 3.7722 57.2142 3.78044 56.4592C3.78869 55.7041 4.09441 54.9828 4.63124 54.4519C5.16806 53.9209 5.89265 53.623 6.64772 53.623C7.40279 53.623 8.12739 53.9209 8.66421 54.4519C9.20103 54.9828 9.50675 55.7041 9.515 56.4592C9.52325 57.2142 9.23336 57.942 8.70827 58.4846C8.18317 59.0272 7.46526 59.3408 6.71037 59.3573H6.58507ZM6.58507 54.9423H6.52023C6.11252 54.9512 5.72475 55.1205 5.44111 55.4135C5.15747 55.7065 5.00085 56.0995 5.00527 56.5073C5.00968 56.9151 5.17477 57.3047 5.46469 57.5915C5.7546 57.8783 6.14595 58.0391 6.55375 58.0391C6.96156 58.0391 7.3529 57.8783 7.64282 57.5915C7.93273 57.3047 8.09782 56.9151 8.10224 56.5073C8.10665 56.0995 7.95004 55.7065 7.66639 55.4135C7.38275 55.1205 6.99498 54.9512 6.58727 54.9423H6.58507Z" fill="#E7F6FF"/>
<path d="M4.54086 64.1692C5.22795 64.1396 5.76091 63.5586 5.73127 62.8715C5.70164 62.1844 5.12062 61.6514 4.43353 61.6811C3.74645 61.7107 3.21348 62.2917 3.24312 62.9788C3.27276 63.6659 3.85378 64.1989 4.54086 64.1692Z" fill="#E7F6FF"/>
<path d="M78.4397 12.9978C77.7555 12.9984 77.0936 12.7541 76.5739 12.3089C76.0543 11.8638 75.7111 11.2474 75.6066 10.5711C75.5021 9.89493 75.6431 9.20364 76.0042 8.6224C76.3652 8.04116 76.9224 7.60838 77.5749 7.4024C78.2274 7.19641 78.9321 7.23083 79.5615 7.49943C80.1908 7.76802 80.7032 8.25304 81.0058 8.8667C81.3085 9.48036 81.3815 10.1821 81.2116 10.8449C81.0417 11.5077 80.6401 12.0878 80.0795 12.4802C79.5988 12.8165 79.0264 12.9972 78.4397 12.9978ZM78.4309 8.58401C78.0306 8.58359 77.6455 8.7377 77.356 9.01422C77.0664 9.29073 76.8948 9.66831 76.8768 10.0683C76.8588 10.4682 76.9959 10.8597 77.2594 11.1611C77.523 11.4625 77.8927 11.6505 78.2914 11.686C78.6902 11.7215 79.0873 11.6018 79.4 11.3517C79.7126 11.1017 79.9167 10.7406 79.9697 10.3437C80.0227 9.94691 79.9205 9.54494 79.6844 9.22161C79.4483 8.89828 79.0965 8.67854 78.7024 8.60819C78.6128 8.59221 78.5219 8.58412 78.4309 8.58401Z" fill="#E7F6FF"/>
<path d="M72.594 12.8411C73.157 12.4462 73.2934 11.6696 72.8986 11.1065C72.5038 10.5434 71.7273 10.407 71.1643 10.8019C70.6012 11.1968 70.4648 11.9735 70.8596 12.5366C71.2545 13.0997 72.031 13.236 72.594 12.8411Z" fill="#E7F6FF"/>
<path d="M141.836 27.7691C141.836 26.5606 141.356 25.4016 140.501 24.547C139.647 23.6925 138.488 23.2124 137.28 23.2124C137.179 23.2124 137.079 23.2124 136.98 23.2223C136.986 23.1234 136.99 23.0234 136.99 22.9223C136.989 22.2746 136.851 21.6345 136.584 21.0444C136.317 20.4544 135.928 19.9281 135.441 19.5005C134.955 19.073 134.383 18.754 133.764 18.565C133.144 18.3759 132.492 18.321 131.85 18.404C131.207 18.487 130.59 18.706 130.039 19.0463C129.489 19.3867 129.016 19.8405 128.655 20.3777C128.293 20.9149 128.05 21.523 127.942 22.1615C127.833 22.8 127.863 23.4543 128.027 24.0807C127.476 23.6813 126.843 23.4103 126.174 23.2875C125.505 23.1648 124.817 23.1934 124.161 23.3714C123.504 23.5493 122.896 23.872 122.38 24.3157C121.865 24.7595 121.455 25.3131 121.182 25.9359C120.908 26.5587 120.777 27.2349 120.799 27.9148C120.82 28.5948 120.994 29.2612 121.307 29.8653C121.62 30.4693 122.064 30.9957 122.607 31.4057C123.149 31.8157 123.777 32.0989 124.444 32.2346C124.716 32.9564 125.167 33.5974 125.754 34.0973C126.342 34.5972 127.046 34.9398 127.802 35.0929C128.558 35.246 129.341 35.2047 130.076 34.9727C130.812 34.7407 131.477 34.3258 132.008 33.7667C132.552 34.1772 133.181 34.4606 133.849 34.5958C134.517 34.7311 135.206 34.7148 135.867 34.5482C136.528 34.3815 137.143 34.0688 137.666 33.6331C138.19 33.1973 138.61 32.6495 138.894 32.0302C139.759 31.7023 140.503 31.1191 141.029 30.358C141.554 29.597 141.835 28.694 141.836 27.7691Z" fill="white"/>
<path d="M21.5576 16.8159C21.5582 16.2172 21.4408 15.6243 21.2122 15.071C20.9836 14.5177 20.6482 14.0149 20.2252 13.5914C19.8022 13.1678 19.2999 12.8317 18.747 12.6024C18.194 12.373 17.6014 12.2549 17.0028 12.2548C16.9017 12.2548 16.8017 12.2548 16.7028 12.2647C16.7094 12.1658 16.7127 12.0657 16.7127 11.9646C16.7126 11.317 16.5744 10.6768 16.3074 10.0868C16.0404 9.49677 15.6508 8.97044 15.1644 8.54289C14.678 8.11535 14.1061 7.7964 13.4868 7.60733C12.8675 7.41825 12.215 7.36339 11.5728 7.44639C10.9306 7.5294 10.3135 7.74836 9.76258 8.08869C9.21166 8.42902 8.73961 8.8829 8.37789 9.42006C8.01616 9.95722 7.77308 10.5653 7.66485 11.2039C7.55661 11.8424 7.58571 12.4966 7.7502 13.123C7.19957 12.7237 6.56652 12.4526 5.89749 12.3299C5.22847 12.2072 4.54046 12.2358 3.88395 12.4137C3.22744 12.5916 2.61909 12.9143 2.10355 13.3581C1.58801 13.8019 1.17836 14.3555 0.904657 14.9782C0.630957 15.601 0.500155 16.2772 0.52185 16.9572C0.543544 17.6371 0.717186 18.3036 1.03003 18.9076C1.34288 19.5117 1.78699 20.0381 2.32977 20.448C2.87255 20.858 3.50023 21.1413 4.16675 21.277C4.43914 21.9982 4.89002 22.6385 5.47721 23.1379C6.0644 23.6374 6.7687 23.9797 7.52417 24.1327C8.27964 24.2858 9.0616 24.2447 9.79684 24.0132C10.5321 23.7817 11.1966 23.3674 11.7282 22.8091C12.272 23.2196 12.9009 23.5029 13.5688 23.6382C14.2366 23.7734 14.9262 23.7571 15.5869 23.5905C16.2475 23.4239 16.8624 23.1112 17.3863 22.6754C17.9101 22.2396 18.3296 21.6919 18.6137 21.0725C19.4781 20.7453 20.2226 20.1629 20.7484 19.4027C21.2742 18.6424 21.5564 17.7403 21.5576 16.8159Z" fill="white"/>
<path d="M105.373 81.6527H39.8242V80.2239H105.373C105.562 80.2239 105.744 80.2991 105.878 80.4331C106.012 80.5671 106.087 80.7488 106.087 80.9383C106.087 81.1277 106.012 81.3094 105.878 81.4434C105.744 81.5774 105.562 81.6527 105.373 81.6527Z" fill="#426572"/>
<path d="M36.8931 81.6527H32.8848C32.6953 81.6527 32.5136 81.5774 32.3797 81.4434C32.2457 81.3094 32.1704 81.1277 32.1704 80.9383C32.1704 80.7488 32.2457 80.5671 32.3797 80.4331C32.5136 80.2991 32.6953 80.2239 32.8848 80.2239H36.8931C37.0825 80.2239 37.2642 80.2991 37.3982 80.4331C37.5322 80.5671 37.6075 80.7488 37.6075 80.9383C37.6075 81.1277 37.5322 81.3094 37.3982 81.4434C37.2642 81.5774 37.0825 81.6527 36.8931 81.6527Z" fill="#426572"/>
<path d="M30.2842 81.6527H29.0071C28.8176 81.6527 28.6359 81.5774 28.502 81.4434C28.368 81.3094 28.2927 81.1277 28.2927 80.9383C28.2927 80.7488 28.368 80.5671 28.502 80.4331C28.6359 80.2991 28.8176 80.2239 29.0071 80.2239H30.2842C30.4737 80.2239 30.6554 80.2991 30.7894 80.4331C30.9233 80.5671 30.9986 80.7488 30.9986 80.9383C30.9986 81.1277 30.9233 81.3094 30.7894 81.4434C30.6554 81.5774 30.4737 81.6527 30.2842 81.6527Z" fill="#426572"/>
<path d="M128.356 81.6527H108.209V80.2239H128.356C128.546 80.2239 128.727 80.2991 128.861 80.4331C128.995 80.5671 129.071 80.7488 129.071 80.9383C129.071 81.1277 128.995 81.3094 128.861 81.4434C128.727 81.5774 128.546 81.6527 128.356 81.6527Z" fill="#426572"/>
<path d="M25.3543 81.6527H5.2063V80.2239H25.3543C25.5437 80.2239 25.7254 80.2991 25.8594 80.4331C25.9933 80.5671 26.0686 80.7488 26.0686 80.9383C26.0686 81.1277 25.9933 81.3094 25.8594 81.4434C25.7254 81.5774 25.5437 81.6527 25.3543 81.6527Z" fill="#426572"/>
<path d="M28.4608 25.8765H108.759C108.952 25.8765 109.143 25.9144 109.321 25.9882C109.499 26.062 109.661 26.1702 109.797 26.3065C109.934 26.4429 110.042 26.6047 110.116 26.7829C110.189 26.961 110.227 27.152 110.227 27.3448V78.2873H26.9927V27.3448C26.9927 26.9554 27.1474 26.5819 27.4227 26.3065C27.698 26.0312 28.0714 25.8765 28.4608 25.8765Z" fill="#EBF0F9"/>
<path d="M30.2158 29.5133H107.332V73.5746H30.2158V29.5133Z" fill="#637F91"/>
<path d="M29.6399 73.4922H107.66C107.66 73.842 107.522 74.1774 107.274 74.4248C107.027 74.6721 106.692 74.8111 106.342 74.8111H30.9586C30.6088 74.8111 30.2734 74.6721 30.0261 74.4248C29.7788 74.1774 29.6399 73.842 29.6399 73.4922Z" fill="white"/>
<g opacity="0.5">
<path d="M53.2591 29.3484L41.7296 73.8229H35.9231L47.4526 29.3484H53.2591Z" fill="#A7BCD5"/>
<path d="M68.0597 29.3484L56.5291 73.8229H44.3535L55.883 29.3484H68.0597Z" fill="#A7BCD5"/>
</g>
<path d="M110.884 78.9468H26.3335V30.8728C26.3352 29.3733 26.9316 27.9358 27.9917 26.8755C29.0518 25.8152 30.4891 25.2188 31.9883 25.217H63.6471V26.5359H31.9883C30.8388 26.5374 29.7367 26.9948 28.9238 27.8078C28.1109 28.6208 27.6536 29.723 27.6522 30.8728V77.6279H109.565V27.7372C109.565 27.4187 109.438 27.1133 109.213 26.8881C108.988 26.6629 108.682 26.5362 108.364 26.5359H78.2611V25.217H108.364C109.032 25.2191 109.671 25.4852 110.143 25.9574C110.615 26.4296 110.882 27.0694 110.884 27.7372V78.9468Z" fill="#426572"/>
<path d="M16.4951 76.7146H122.953V77.0575C122.953 78.1943 122.501 79.2846 121.697 80.0884C120.894 80.8922 119.804 81.3438 118.667 81.3438H20.7808C19.6441 81.3438 18.5541 80.8922 17.7504 80.0884C16.9466 79.2846 16.4951 78.1943 16.4951 77.0575V76.7146Z" fill="#EBF0F9"/>
<path opacity="0.5" d="M122.408 78.949C122.174 79.5573 121.761 80.0803 121.224 80.4492C120.687 80.8181 120.05 81.0154 119.399 81.0152H19.3883C18.7366 81.0154 18.1001 80.8181 17.5628 80.4492C17.0255 80.0803 16.6125 79.5573 16.3784 78.949H122.408Z" fill="#A7BCD5"/>
<path d="M118.171 81.8407H20.2851C18.974 81.8392 17.7171 81.3177 16.79 80.3905C15.863 79.4633 15.3415 78.2062 15.3401 76.8949V75.8926H123.116V76.8949C123.115 78.2062 122.593 79.4633 121.666 80.3905C120.739 81.3177 119.482 81.8392 118.171 81.8407ZM16.673 77.2103C16.7522 78.1141 17.1671 78.9554 17.836 79.5682C18.5049 80.181 19.3791 80.5209 20.2862 80.5207H118.172C119.079 80.5209 119.954 80.181 120.622 79.5682C121.291 78.9554 121.706 78.1141 121.785 77.2103H16.673Z" fill="#426572"/>
<path d="M107.825 73.9868H29.3916V28.8539H107.825V73.9868ZM30.7092 72.6679H106.507V30.1728H30.7103L30.7092 72.6679Z" fill="#426572"/>
<path d="M120.969 40.095V52.2473C120.967 52.5091 120.863 52.7597 120.677 52.9448C120.492 53.13 120.242 53.2347 119.98 53.2364H98.4046C98.266 53.2368 98.1289 53.2075 98.0025 53.1507C97.8268 53.0733 97.6776 52.9465 97.5728 52.7857C97.468 52.6249 97.4123 52.437 97.4124 52.2451V40.095C97.412 39.8945 97.4726 39.6987 97.586 39.5335C97.6994 39.3682 97.8604 39.2413 98.0475 39.1696C98.1603 39.1257 98.2803 39.1034 98.4013 39.1036H119.973C120.212 39.1044 120.443 39.191 120.624 39.3478C120.804 39.5046 120.922 39.721 120.956 39.9576C120.964 40.003 120.968 40.0489 120.969 40.095Z" fill="white"/>
<path d="M120.804 39.7642V51.9165C120.802 52.1783 120.698 52.4289 120.512 52.614C120.327 52.7991 120.077 52.9039 119.815 52.9056H98.2396C98.101 52.906 97.9639 52.8767 97.8374 52.8199C97.6618 52.7425 97.5125 52.6157 97.4077 52.4549C97.303 52.294 97.2472 52.1062 97.2473 51.9143V51.7494H118.49C118.752 51.7477 119.002 51.6429 119.187 51.4578C119.372 51.2727 119.477 51.0221 119.479 50.7603V38.7728H119.808C120.047 38.7736 120.278 38.8602 120.459 39.017C120.639 39.1738 120.757 39.3902 120.791 39.6268C120.799 39.6722 120.803 39.7181 120.804 39.7642Z" fill="#D6DEE9"/>
<path d="M119.812 53.7333H98.2398C98.0079 53.7337 97.7786 53.6847 97.5672 53.5893C97.2756 53.4597 97.0279 53.2483 96.8541 52.9806C96.6803 52.7129 96.5879 52.4006 96.5881 52.0814V39.9302C96.5898 39.6036 96.6876 39.2848 96.8693 39.0135C97.0511 38.7422 97.3087 38.5304 97.6101 38.4047L97.72 38.3454H97.7727C97.923 38.3013 98.0788 38.279 98.2354 38.2794H119.808C120.205 38.2809 120.589 38.4252 120.889 38.686C121.189 38.9469 121.386 39.3069 121.443 39.7005C121.454 39.7766 121.459 39.8533 121.459 39.9302V52.0825C121.46 52.4259 121.352 52.7607 121.153 53.0398C121 53.2534 120.799 53.4277 120.566 53.5483C120.333 53.6689 120.074 53.7323 119.812 53.7333ZM98.042 39.6653C98.0001 39.6959 97.9661 39.7359 97.9426 39.7822C97.9191 39.8284 97.9068 39.8795 97.9068 39.9313V52.0825C97.9067 52.147 97.9254 52.2101 97.9608 52.264C97.9961 52.3179 98.0465 52.3603 98.1057 52.3859C98.1478 52.4049 98.1935 52.4146 98.2398 52.4144H119.812C119.865 52.4143 119.917 52.4014 119.964 52.3767C120.012 52.352 120.052 52.3163 120.082 52.2727C120.122 52.2169 120.144 52.15 120.144 52.0814V39.9302C120.145 39.9163 120.145 39.9023 120.144 39.8884C120.133 39.8083 120.094 39.7347 120.033 39.6812C119.973 39.6276 119.895 39.5978 119.814 39.5972H98.2398C98.2089 39.5971 98.1781 39.6016 98.1485 39.6104L98.042 39.6653Z" fill="#426572"/>
<path d="M103.485 45.4805C103.159 45.2848 102.802 45.1434 102.43 45.0617C102.62 44.9435 102.776 44.7786 102.884 44.5827C102.992 44.3868 103.048 44.1665 103.046 43.9429C103.044 43.7158 102.982 43.4932 102.868 43.297C102.754 43.1007 102.591 42.9375 102.394 42.8233C102.198 42.7092 101.975 42.648 101.748 42.6458C101.521 42.6436 101.298 42.7005 101.099 42.8108C100.901 42.9212 100.734 43.0812 100.616 43.2752C100.498 43.4692 100.433 43.6906 100.426 43.9176C100.42 44.1445 100.472 44.3694 100.579 44.5699C100.685 44.7705 100.842 44.94 101.033 45.0617C100.646 45.1393 100.274 45.282 99.9343 45.4838C99.8509 45.5382 99.7813 45.6113 99.7311 45.6974C99.6809 45.7834 99.6515 45.88 99.6453 45.9794V47.55C99.6453 47.6374 99.68 47.7213 99.7418 47.7831C99.8037 47.845 99.8875 47.8797 99.975 47.8797H103.447C103.534 47.8797 103.618 47.845 103.68 47.7831C103.742 47.7213 103.777 47.6374 103.777 47.55V45.9772C103.772 45.877 103.743 45.7794 103.692 45.6928C103.642 45.6063 103.571 45.5334 103.485 45.4805Z" fill="#426572"/>
<path d="M105.761 41.1589H117.333V42.4778H105.761V41.1589Z" fill="#426572"/>
<path d="M105.761 43.4736H113.2V44.7925H105.761V43.4736Z" fill="#426572"/>
<path d="M105.761 48.0204H117.168V49.3393H105.761V48.0204Z" fill="#426572"/>
<path d="M69.8172 81.2637C69.8172 81.2637 87.4059 72.4712 87.4059 59.2748V41.6821L69.8172 37.2859L52.2285 41.6821V59.2737C52.2285 72.4679 69.8172 81.2637 69.8172 81.2637Z" fill="#FF2800"/>
<path d="M73.304 79.6436C72.1738 80.3892 71.0064 81.0766 69.8062 81.7033C69.8062 81.7033 52.2175 72.9108 52.2175 59.7133V42.1217L56.0636 41.16V56.0732C56.0636 67.5693 67.6832 76.1651 73.304 79.6436Z" fill="#D66765"/>
<path d="M69.4656 81.9999L69.1711 81.8527C68.9886 81.7614 64.647 79.5721 60.2372 75.7122C57.6339 73.4339 55.557 71.0489 54.0636 68.6211C52.1747 65.5514 51.2175 62.407 51.2175 59.2791V41.1677L69.4656 36.6044L69.626 36.6439L87.7136 41.1666V59.2736C87.7136 62.407 86.7565 65.5514 84.8675 68.6156C83.3741 71.0434 81.2972 73.4284 78.694 75.7067C74.2842 79.5666 69.9425 81.7516 69.7601 81.8472L69.4656 81.9999ZM52.5362 42.1975V59.2736C52.5362 62.1586 53.4274 65.0711 55.1867 67.9298C56.6152 70.2444 58.602 72.5293 61.1053 74.7198C63.675 76.9486 66.478 78.8931 69.4656 80.5195C72.4612 78.888 75.2717 76.9372 77.8478 74.7011C80.3456 72.5118 82.3324 70.2301 83.7521 67.9221C85.5103 65.0645 86.3894 62.1597 86.3894 59.2791V42.1975L69.4656 37.9639L52.5362 42.1975Z" fill="#426572"/>
<path d="M59.2482 66.0317L66.8481 72.1128L67.9272 72.9767C68.5228 73.4537 69.0876 73.7163 69.8656 73.6119C70.212 73.5702 70.5442 73.4493 70.8364 73.2588C71.1287 73.0682 71.3733 72.813 71.5513 72.5129L79.8698 58.9098L81.0566 56.97C81.6874 55.939 81.316 54.3861 80.2292 53.8124C79.105 53.2178 77.7446 53.5398 77.0721 54.64L68.7535 68.2419L67.5668 70.1818L71.1931 69.7147L63.5954 63.6358L62.5163 62.7719C61.5756 62.0191 60.1592 61.7828 59.2526 62.7719C58.4834 63.6094 58.246 65.2305 59.2526 66.0361L59.2482 66.0317Z" fill="white"/>
<path opacity="0.2" d="M39.6396 37.9178C40.4076 36.4759 40.8792 34.8948 41.0263 33.2678C41.1735 31.6407 40.9933 30.0006 40.4965 28.4443C39.9996 26.888 39.1961 25.447 38.1334 24.2063C37.0707 22.9656 35.7703 21.9504 34.3089 21.2206C32.8475 20.4907 31.2547 20.061 29.6246 19.9568C27.9945 19.8526 26.36 20.076 24.8176 20.6138C23.2752 21.1517 21.8561 21.9931 20.6441 23.0883C19.4322 24.1836 18.4518 25.5106 17.7608 26.9909C16.8067 28.783 16.3134 30.7843 16.3254 32.8145C16.3374 34.8447 16.8543 36.8401 17.8296 38.6207C18.8048 40.4013 20.2077 41.9112 21.9119 43.0143C23.616 44.1174 25.5679 44.7791 27.5914 44.9397C27.2383 45.0232 26.8797 45.091 26.5156 45.143C28.4312 45.4193 30.385 45.2369 32.2164 44.611C34.0479 43.9851 35.7046 42.9334 37.0506 41.5425C38.1276 40.5025 39.0051 39.274 39.6396 37.9178Z" fill="#606060"/>
<path d="M27.1959 42.0832C33.9506 42.0832 39.4264 36.6065 39.4264 29.8507C39.4264 23.0949 33.9506 17.6182 27.1959 17.6182C20.4411 17.6182 14.9653 23.0949 14.9653 29.8507C14.9653 36.6065 20.4411 42.0832 27.1959 42.0832Z" fill="#A8EF9E"/>
<path d="M38.8429 30.7245C38.8425 32.4783 38.4652 34.2116 37.7364 35.8068C37.0075 37.4019 35.9443 38.8217 34.6187 39.9699C33.2932 41.118 31.7363 41.9677 30.0536 42.4613C28.3709 42.9549 26.6018 43.0808 24.8662 42.8306C27.7765 42.4098 30.4379 40.9544 32.3627 38.731C34.2875 36.5076 35.3469 33.665 35.3469 30.7239C35.3469 27.7829 34.2875 24.9403 32.3627 22.7169C30.4379 20.4934 27.7765 19.038 24.8662 18.6172C26.602 18.3668 28.3713 18.4927 30.0542 18.9863C31.7371 19.4798 33.2942 20.3296 34.6199 21.4779C35.9456 22.6262 37.0089 24.0462 37.7377 25.6416C38.4665 27.237 38.8438 28.9704 38.844 30.7245H38.8429Z" fill="#A7E59C"/>
<path d="M26.9049 43.3241C24.3554 43.3243 21.8632 42.5684 19.7433 41.1519C17.6234 39.7354 15.9711 37.7219 14.9953 35.3662C14.0196 33.0104 13.7642 30.4182 14.2615 27.9173C14.7589 25.4164 15.9865 23.1192 17.7893 21.3161C19.592 19.5131 21.8889 18.2852 24.3894 17.7878C26.8899 17.2904 29.4817 17.5458 31.8371 18.5217C34.1924 19.4976 36.2055 21.1502 37.6218 23.2704C39.0381 25.3907 39.7939 27.8834 39.7937 30.4332C39.7896 33.8509 38.4304 37.1273 36.0142 39.544C33.5979 41.9606 30.322 43.32 26.9049 43.3241ZM26.9049 18.8601C24.6163 18.8599 22.379 19.5385 20.476 20.81C18.573 22.0816 17.0897 23.889 16.2137 26.0036C15.3377 28.1183 15.1084 30.4453 15.5548 32.6904C16.0011 34.9354 17.1031 36.9976 18.7213 38.6163C20.3395 40.2349 22.4013 41.3372 24.646 41.7839C26.8906 42.2305 29.2172 42.0014 31.3317 41.1255C33.4461 40.2496 35.2533 38.7662 36.5248 36.863C37.7964 34.9598 38.475 32.7222 38.475 30.4332C38.4718 27.365 37.2518 24.4234 35.0827 22.2537C32.9137 20.0841 29.9726 18.8636 26.9049 18.8601Z" fill="#426572"/>
<path d="M74.1226 25.2754H76.5954V26.5943H74.1226V25.2754Z" fill="#426572"/>
<path d="M65.8625 25.2754H72.5284V26.5943H65.8625V25.2754Z" fill="#426572"/>
<path d="M31.7124 37.1198C28.1234 37.6287 23.6993 36.312 23.6993 36.312L21.518 36.7462C21.4224 36.7646 21.3239 36.7612 21.2298 36.7362C21.1356 36.7113 21.0483 36.6654 20.9744 36.602C20.9005 36.5386 20.8418 36.4594 20.8027 36.3702C20.7637 36.2809 20.7452 36.1841 20.7488 36.0867C20.793 34.5265 20.753 32.965 20.629 31.4091C20.618 31.2967 20.6367 31.1834 20.6833 31.0804C20.7298 30.9775 20.8026 30.8886 20.8942 30.8226C20.9859 30.7566 21.0933 30.7159 21.2057 30.7044C21.318 30.693 21.4314 30.7112 21.5345 30.7574C22.026 31 22.5646 31.132 23.1125 31.1443C24.4367 31.1333 25.5927 30.1177 26.1839 28.9121C26.7751 27.7064 26.9092 26.925 27.0333 25.5841C27.0872 24.9983 27.1729 24.3488 27.6179 23.9729C28.3872 23.3211 29.6531 24.0828 29.9025 25.0665C30.152 26.0501 29.7498 26.4875 29.4102 27.4437C29.1904 28.068 29.2388 28.1032 29.0608 28.7461C29.0381 28.7983 29.0269 28.8548 29.0281 28.9117C29.0292 28.9686 29.0426 29.0246 29.0674 29.0758C29.0992 29.1116 29.1381 29.1404 29.1816 29.1604C29.2251 29.1805 29.2722 29.1913 29.3201 29.1923C30.0388 29.2846 30.5102 29.5528 31.23 29.632C31.5608 29.6678 31.8751 29.7951 32.1377 29.9995C32.4002 30.2039 32.6008 30.4773 32.7167 30.7893V36.1845C32.7179 36.3133 32.6923 36.4408 32.6416 36.5591C32.5908 36.6774 32.5161 36.7839 32.4221 36.8718C32.3281 36.9597 32.2169 37.0272 32.0955 37.0699C31.974 37.1126 31.8451 37.1296 31.7168 37.1198H31.7124Z" fill="#85D175"/>
<defs>
<linearGradient id="paint0_linear_5324_110231" x1="0.664468" y1="40.7962" x2="138.385" y2="40.7962" gradientUnits="userSpaceOnUse">
<stop stop-color="#FF2800"/>
<stop offset="1" stop-color="#FB6161"/>
</linearGradient>
</defs>
</svg>
