<svg width="71" height="86" viewBox="0 0 71 86" fill="none" xmlns="http://www.w3.org/2000/svg">
<path d="M28.2773 6.03566V2" stroke="#FF5333" stroke-width="2.13434" stroke-miterlimit="10" stroke-linecap="round"/>
<path d="M12.0181 6.33984L14.3693 9.25254" stroke="#FF5333" stroke-width="2.13434" stroke-miterlimit="10" stroke-linecap="round"/>
<path d="M44.6423 6.33984L42.3027 9.25254" stroke="#FF5333" stroke-width="2.13434" stroke-miterlimit="10" stroke-linecap="round"/>
<path opacity="0.8" d="M63.3231 38.0169L39.8461 53.2822C39.1606 53.6594 38.3576 53.7624 37.5991 53.5703C36.8407 53.3783 36.1834 52.9055 35.7601 52.2475C35.3368 51.5895 35.179 50.7954 35.3186 50.0256C35.4582 49.2557 35.8849 48.5676 36.5123 48.1002L59.9074 32.8349C60.2477 32.6137 60.6282 32.4616 61.0272 32.3875C61.4262 32.3133 61.8359 32.3185 62.2329 32.4027C62.6299 32.4868 63.0065 32.6484 63.3411 32.8781C63.6756 33.1078 63.9617 33.4012 64.1829 33.7414C64.4041 34.0817 64.5561 34.4622 64.6303 34.8612C64.7044 35.2602 64.6993 35.6699 64.6151 36.0669C64.5309 36.4639 64.3694 36.8405 64.1397 37.175C63.91 37.5096 63.6166 37.7957 63.2763 38.0169H63.3231Z" fill="#FF2800"/>
<path opacity="0.8" d="M31.9506 58.4174L16.2524 68.6762C15.9122 68.8974 15.5317 69.0494 15.1327 69.1236C14.7337 69.1977 14.324 69.1926 13.9269 69.1084C13.1251 68.9384 12.4237 68.4568 11.977 67.7696C11.5302 67.0824 11.3748 66.2459 11.5448 65.4441C11.7148 64.6423 12.1963 63.9409 12.8835 63.4942L28.5817 53.2354C29.2689 52.7886 30.1054 52.6332 30.9072 52.8032C31.709 52.9732 32.4104 53.4548 32.8571 54.1419C33.3039 54.8291 33.4593 55.6656 33.2893 56.4674C33.1193 57.2692 32.6378 57.9707 31.9506 58.4174Z" fill="#FF8D7D"/>
<path d="M52.3042 34.4375L28.8271 49.6444C28.4869 49.8656 28.1064 50.0176 27.7074 50.0917C27.3084 50.1659 26.8986 50.1607 26.5016 50.0766C26.1046 49.9924 25.7281 49.8308 25.3935 49.6011C25.0589 49.3714 24.7729 49.0781 24.5517 48.7378C24.3305 48.3975 24.1784 48.017 24.1043 47.618C24.0301 47.219 24.0353 46.8093 24.1195 46.4123C24.2036 46.0153 24.3652 45.6388 24.5949 45.3042C24.8246 44.9696 25.118 44.6835 25.4582 44.4623L48.9236 29.2438C49.612 28.824 50.4369 28.689 51.2233 28.8674C52.0097 29.0458 52.6956 29.5236 53.1354 30.1994C53.5753 30.8752 53.7345 31.6958 53.5793 32.487C53.4241 33.2783 52.9667 33.978 52.3042 34.4375Z" fill="#FF8D7D"/>
<path d="M20.9197 54.8263L5.23329 65.0383C4.54485 65.4581 3.71991 65.5932 2.93355 65.4148C2.14719 65.2363 1.46129 64.7585 1.02141 64.0827C0.581537 63.407 0.422303 62.5864 0.577503 61.7951C0.732703 61.0038 1.19012 60.3042 1.85269 59.8446L17.5508 49.6443C17.8911 49.4231 18.2716 49.2711 18.6706 49.1969C19.0696 49.1228 19.4793 49.1279 19.8763 49.2121C20.2733 49.2963 20.6499 49.4578 20.9845 49.6876C21.319 49.9173 21.6051 50.2106 21.8263 50.5509C22.0475 50.8911 22.1995 51.2716 22.2737 51.6706C22.3478 52.0696 22.3427 52.4793 22.2585 52.8764C22.1743 53.2734 22.0128 53.6499 21.7831 53.9845C21.5533 54.3191 21.26 54.6051 20.9197 54.8263Z" fill="#143756"/>
<path d="M59.3813 29.8285L59.241 29.9221C58.9007 30.1441 58.52 30.2969 58.1207 30.3717C57.7214 30.4466 57.3113 30.4421 56.9138 30.3585C56.5162 30.2748 56.139 30.1137 55.8037 29.8843C55.4684 29.6549 55.1816 29.3617 54.9596 29.0214C54.7377 28.6812 54.5849 28.3005 54.51 27.9012C54.4351 27.5019 54.4397 27.0918 54.5233 26.6942C54.6069 26.2967 54.7681 25.9195 54.9975 25.5842C55.2269 25.2489 55.5201 24.9621 55.8604 24.7401L56.0124 24.6465C56.6996 24.1998 57.5361 24.0443 58.3379 24.2143C59.1397 24.3843 59.8411 24.8659 60.2879 25.5531C60.7346 26.2403 60.8901 27.0768 60.7201 27.8786C60.5501 28.6804 60.0685 29.3818 59.3813 29.8285Z" fill="#143756"/>
<path opacity="0.5" d="M62.1304 49.5507L38.6534 64.816C37.9695 65.1675 37.179 65.2511 36.4367 65.0506C35.6943 64.8501 35.0535 64.3798 34.6395 63.7318C34.2256 63.0838 34.0682 62.3047 34.1983 61.5468C34.3284 60.7889 34.7366 60.1069 35.343 59.634L58.7382 44.3687C59.4253 43.9219 60.2618 43.7665 61.0636 43.9365C61.8654 44.1065 62.5669 44.5881 63.0136 45.2752C63.4604 45.9624 63.6158 46.7989 63.4458 47.6007C63.2758 48.4025 62.7942 49.104 62.1071 49.5507H62.1304Z" fill="#F33838"/>
<path opacity="0.5" d="M69.2658 44.9535L69.1255 45.0471C68.7852 45.2683 68.4047 45.4203 68.0057 45.4945C67.6067 45.5686 67.197 45.5635 66.8 45.4793C66.403 45.3951 66.0264 45.2336 65.6918 45.0039C65.3573 44.7742 65.0712 44.4808 64.85 44.1406C64.6288 43.8003 64.4768 43.4198 64.4026 43.0208C64.3285 42.6218 64.3336 42.2121 64.4178 41.8151C64.502 41.418 64.6635 41.0415 64.8932 40.7069C65.1229 40.3724 65.4163 40.0863 65.7566 39.8651L65.8969 39.7715C66.2372 39.5503 66.6177 39.3983 67.0167 39.3241C67.4157 39.25 67.8254 39.2551 68.2224 39.3393C68.6194 39.4235 68.996 39.585 69.3306 39.8148C69.6651 40.0445 69.9512 40.3378 70.1724 40.6781C70.3936 41.0183 70.5456 41.3988 70.6198 41.7978C70.6939 42.1968 70.6888 42.6065 70.6046 43.0036C70.5204 43.4006 70.3589 43.7771 70.1291 44.1117C69.8994 44.4463 69.6061 44.7323 69.2658 44.9535Z" fill="#FF2800"/>
<path d="M7.95888 44.9418C9.43277 48.4511 11.7021 51.5626 13.5971 54.873C15.4921 58.1834 17.1064 61.8916 16.8841 65.6699H39.1095C38.9341 61.8565 40.4898 58.1834 42.3848 54.873C44.2799 51.5626 46.5492 48.4394 48.0348 44.9418C54.176 30.39 44.701 11.9312 28.0085 12.1886C11.2927 11.9312 1.84104 30.39 7.95888 44.9418Z" fill="white"/>
<path d="M28.2539 12.0132V65.4945H39.3783C39.2028 61.6811 40.7586 58.008 42.6536 54.6976C44.5486 51.3872 46.8297 48.2639 48.3036 44.7664C54.4214 30.2146 44.9697 11.7558 28.2539 12.0132Z" fill="#CEC1BC"/>
<path d="M8.12233 45.281C9.60792 48.7903 11.8773 51.9018 13.7723 55.2123C15.4497 57.9172 16.549 60.9401 17.0008 64.0907C17.0643 64.6241 17.3228 65.1151 17.7267 65.4693C18.1305 65.8235 18.6511 66.0158 19.1882 66.0091H37.1674C37.7045 66.0158 38.2251 65.8235 38.629 65.4693C39.0328 65.1151 39.2914 64.6241 39.3549 64.0907C39.7959 60.9374 40.896 57.9123 42.5834 55.2123C44.4784 51.9018 46.7477 48.7903 48.2099 45.281C54.3278 30.7292 44.8761 12.2705 28.1603 12.5278C11.4678 12.2705 2.0045 30.7292 8.12233 45.281Z" stroke="#FF5333" stroke-width="2.13434" stroke-miterlimit="10"/>
<path d="M19.9019 75.4374H35.8106V75.7883C35.8106 76.8329 35.6048 77.8672 35.2051 78.8323C34.8053 79.7974 34.2194 80.6743 33.4808 81.4129C32.7422 82.1515 31.8653 82.7374 30.9002 83.1372C29.9351 83.5369 28.9008 83.7427 27.8562 83.7427C25.7466 83.7427 23.7234 82.9046 22.2316 81.4129C20.7399 79.9212 19.9019 77.8979 19.9019 75.7883V75.4374Z" fill="#FF5333"/>
<path d="M20.1362 75.6947H36.08V76.0456C36.08 77.0902 35.8743 78.1246 35.4745 79.0896C35.0748 80.0547 34.4889 80.9316 33.7503 81.6702C33.0116 82.4088 32.1347 82.9947 31.1697 83.3945C30.2046 83.7942 29.1703 84 28.1257 84C27.0781 84.0046 26.04 83.8023 25.0709 83.4046C24.1018 83.0069 23.2208 82.4217 22.4784 81.6826C21.736 80.9436 21.147 80.0651 20.7451 79.0978C20.3431 78.1304 20.1362 77.0932 20.1362 76.0456V75.6947Z" stroke="#FF2800" stroke-width="2.13434" stroke-miterlimit="10"/>
<path d="M11.9243 75.6595H43.9289" stroke="#FF2800" stroke-width="2.13434" stroke-miterlimit="10" stroke-linecap="round"/>
<path d="M17.6094 71.0977H36.7466" stroke="#FF2800" stroke-width="2.13434" stroke-miterlimit="10" stroke-linecap="round"/>
<path d="M50.854 18.2129L55.1821 15.5927" stroke="#FF5333" stroke-width="2.13434" stroke-miterlimit="10" stroke-linecap="round"/>
<path d="M5.74802 18.2129L1.41992 15.5927" stroke="#FF5333" stroke-width="2.13434" stroke-miterlimit="10" stroke-linecap="round"/>
<path d="M28.2539 65.4945V55.9727" stroke="#FF5333" stroke-width="2.13434" stroke-miterlimit="10" stroke-linecap="round"/>
<path d="M32.407 49.9951L30.3482 52.861L28.2894 55.7269L26.2424 52.861L24.1836 49.9951" stroke="#FF5333" stroke-width="2.13434" stroke-miterlimit="10" stroke-linecap="round"/>
<path d="M41.87 43.655C41.5529 44.5291 41.1615 45.3744 40.7002 46.1817" stroke="white" stroke-width="1.06717" stroke-miterlimit="10" stroke-linecap="round"/>
<path opacity="0.3" d="M43.5311 35.8412C43.4952 36.8292 43.3699 37.8119 43.1567 38.7773" stroke="white" stroke-width="1.06717" stroke-miterlimit="10" stroke-linecap="round"/>
<path d="M35.1675 19.2656C37.3006 20.4265 39.1596 22.032 40.6187 23.9734C42.0778 25.9148 43.1029 28.1469 43.6248 30.5187" stroke="white" stroke-width="1.06717" stroke-miterlimit="10" stroke-linecap="round"/>
<path opacity="0.7" d="M16.7437 20.6459C18.6946 19.1534 20.9516 18.1108 23.3528 17.5929C25.509 17.1136 27.7377 17.058 29.9151 17.4291" stroke="white" stroke-width="1.06717" stroke-miterlimit="10" stroke-linecap="round"/>
<path d="M13.2227 25.9802C14.469 23.7193 16.213 21.7713 18.3228 20.2834" stroke="white" stroke-width="2.13434" stroke-miterlimit="10" stroke-linecap="round"/>
<path d="M17.2234 47.2346C14.5961 45.0456 12.6879 42.1169 11.7471 38.8292C10.8062 35.5414 10.8762 32.0467 11.9478 28.7992" stroke="white" stroke-width="2.13434" stroke-miterlimit="10" stroke-linecap="round"/>
</svg>
