<svg width="118" height="83" viewBox="0 0 118 83" fill="none" xmlns="http://www.w3.org/2000/svg">
<path d="M92.2822 38.5309L107.534 23.2792" stroke="#FF2800" stroke-width="9.02472" stroke-miterlimit="10" stroke-linecap="round"/>
<path d="M117.386 13.4271L114.453 24.3621L111.52 35.297L103.518 27.2951L95.501 19.2781L106.451 16.3602L117.386 13.4271Z" fill="#FF2800"/>
<path opacity="0.8" d="M80.8812 17.8342L50.6935 37.463C49.8099 38.0374 48.7342 38.2373 47.7032 38.0187C46.6723 37.8001 45.7703 37.1809 45.1959 36.2973C44.6214 35.4137 44.4215 34.3381 44.6402 33.3071C44.8588 32.2761 45.478 31.3742 46.3616 30.7997L76.5493 11.2462C77.4329 10.6717 78.5085 10.4718 79.5395 10.6904C80.5705 10.9091 81.4724 11.5283 82.0469 12.4119C82.6213 13.2955 82.8212 14.3711 82.6026 15.4021C82.384 16.4331 81.7648 17.335 80.8812 17.9094V17.8342Z" fill="#FF2800"/>
<path opacity="0.8" d="M40.5404 44.0661L20.3551 57.1519C19.9175 57.4364 19.4283 57.6318 18.9152 57.7272C18.4022 57.8225 17.8754 57.8159 17.3649 57.7077C16.8544 57.5994 16.3702 57.3917 15.94 57.0963C15.5098 56.801 15.1419 56.4237 14.8575 55.9862C14.5731 55.5487 14.3776 55.0595 14.2822 54.5464C14.1869 54.0333 14.1935 53.5065 14.3018 52.996C14.41 52.4855 14.6177 52.0014 14.9131 51.5711C15.2085 51.1409 15.5857 50.7731 16.0232 50.4887L36.2085 37.3728C36.646 37.0883 37.1353 36.8928 37.6483 36.7975C38.1614 36.7021 38.6882 36.7088 39.1987 36.817C39.7092 36.9253 40.1934 37.133 40.6236 37.4284C41.0538 37.7237 41.4216 38.1009 41.7061 38.5384C41.9905 38.976 42.186 39.4652 42.2813 39.9783C42.3767 40.4913 42.37 41.0182 42.2618 41.5286C42.1536 42.0391 41.9458 42.5233 41.6505 42.9535C41.3551 43.3837 40.9779 43.7516 40.5404 44.036V44.0661Z" fill="#FBA6A6"/>
<path d="M66.6972 13.2167L36.5245 32.8454C36.087 33.1298 35.5977 33.3253 35.0847 33.4207C34.5716 33.516 34.0448 33.5094 33.5343 33.4011C32.5033 33.1825 31.6014 32.5633 31.0269 31.6797C30.4525 30.7961 30.2526 29.7205 30.4712 28.6895C30.6898 27.6585 31.309 26.7566 32.1926 26.1822L62.3653 6.62861C62.8028 6.34418 63.2921 6.1487 63.8052 6.05335C64.3182 5.958 64.845 5.96463 65.3555 6.07288C65.866 6.18112 66.3502 6.38886 66.7804 6.68422C67.2106 6.97958 67.5784 7.35679 67.8629 7.79431C68.1473 8.23182 68.3428 8.72107 68.4381 9.23413C68.5335 9.74719 68.5269 10.274 68.4186 10.7845C68.3104 11.295 68.1026 11.7792 67.8073 12.2094C67.5119 12.6396 67.1347 13.0074 66.6972 13.2919V13.2167Z" fill="#143756"/>
<path d="M26.3566 39.4485L6.17132 52.6396C5.27775 53.214 4.19257 53.41 3.15453 53.1843C2.11648 52.9587 1.2106 52.3299 0.636154 51.4363C0.0617125 50.5427 -0.13423 49.4576 0.0914322 48.4195C0.317094 47.3815 0.945876 46.4756 1.83945 45.9011L22.0248 32.7852C22.4623 32.5008 22.9515 32.3053 23.4646 32.21C23.9777 32.1146 24.5045 32.1212 25.015 32.2295C25.5255 32.3377 26.0096 32.5455 26.4399 32.8408C26.8701 33.1362 27.2379 33.5134 27.5223 33.9509C27.8068 34.3884 28.0022 34.8777 28.0976 35.3907C28.1929 35.9038 28.1863 36.4306 28.0781 36.9411C27.9698 37.4516 27.7621 37.9358 27.4667 38.366C27.1714 38.7962 26.7942 39.164 26.3566 39.4485Z" fill="#FF2800"/>
<path d="M75.8118 7.30543L75.6163 7.42576C75.1788 7.71019 74.6895 7.90566 74.1765 8.00102C73.6634 8.09637 73.1366 8.08974 72.6261 7.98149C72.1156 7.87325 71.6314 7.66551 71.2012 7.37015C70.771 7.07479 70.4032 6.69758 70.1187 6.26006C69.8343 5.82255 69.6388 5.33329 69.5435 4.82023C69.4481 4.30717 69.4547 3.78036 69.563 3.26986C69.6712 2.75937 69.879 2.27519 70.1743 1.84498C70.4697 1.41477 70.8469 1.04694 71.2844 0.762507L71.48 0.642178C72.3636 0.0677369 73.4392 -0.132167 74.4702 0.0864428C75.5012 0.305053 76.4031 0.924269 76.9775 1.80787C77.552 2.69147 77.7519 3.76708 77.5333 4.79807C77.3146 5.82906 76.6954 6.73099 75.8118 7.30543Z" fill="#F64C4C"/>
<path opacity="0.5" d="M79.3469 32.6649L49.1592 52.2937C48.2748 52.8016 47.2294 52.9513 46.2381 52.7119C45.2467 52.4724 44.3849 51.8621 43.8299 51.0065C43.2749 50.1508 43.069 49.115 43.2545 48.1122C43.4401 47.1094 44.0029 46.2158 44.8273 45.6154L75.015 26.0619C75.8986 25.4874 76.9743 25.2875 78.0052 25.5061C79.0362 25.7247 79.9382 26.3439 80.5126 27.2275C81.087 28.1111 81.2869 29.1868 81.0683 30.2177C80.8497 31.2487 80.2305 32.1507 79.3469 32.7251V32.6649Z" fill="#143756"/>
<path opacity="0.5" d="M39.0062 58.8967L18.8209 72.0126C17.9373 72.5871 16.8617 72.787 15.8307 72.5684C14.7997 72.3498 13.8978 71.7305 13.3233 70.8469C12.7489 69.9633 12.549 68.8877 12.7676 67.8567C12.9862 66.8258 13.6054 65.9238 14.489 65.3494L34.6292 52.2184C35.5136 51.7105 36.559 51.5608 37.5503 51.8003C38.5417 52.0397 39.4035 52.6501 39.9585 53.5057C40.5135 54.3613 40.7194 55.3971 40.5339 56.3999C40.3483 57.4027 39.7855 58.2963 38.9611 58.8967H39.0062Z" fill="#F64C4C"/>
<path opacity="0.5" d="M88.4471 26.7537L88.2666 26.874C87.3823 27.3819 86.3368 27.5316 85.3455 27.2921C84.3542 27.0527 83.4923 26.4424 82.9373 25.5867C82.3823 24.7311 82.1764 23.6953 82.3619 22.6925C82.5475 21.6897 83.1104 20.7961 83.9347 20.1957L84.1152 20.0754C84.553 19.7565 85.0512 19.5302 85.5793 19.4103C86.1074 19.2904 86.6544 19.2794 87.187 19.3779C87.7195 19.4764 88.2264 19.6825 88.6767 19.9834C89.1269 20.2843 89.5112 20.6739 89.8059 21.1282C90.1006 21.5826 90.2996 22.0922 90.3908 22.6261C90.482 23.1599 90.4635 23.7067 90.3363 24.2332C90.2092 24.7596 89.9761 25.2546 89.6513 25.688C89.3264 26.1213 88.9167 26.4839 88.4471 26.7537Z" fill="#F64C4C"/>
<path d="M110.798 55.2418C110.798 51.872 110.134 48.5352 108.845 45.422C107.555 42.3088 105.665 39.48 103.282 37.0972C100.899 34.7144 98.0706 32.8243 94.9574 31.5348C91.8441 30.2452 88.5074 29.5815 85.1376 29.5815C82.4418 29.5854 79.7628 30.0065 77.1959 30.8299C75.2101 26.4701 71.7972 22.9178 67.5203 20.7592C63.2435 18.6006 58.3585 17.9649 53.6716 18.957C48.9848 19.949 44.7763 22.5095 41.7409 26.2159C38.7054 29.9222 37.0245 34.5528 36.9756 39.3432C36.9798 40.3506 37.0603 41.3562 37.2163 42.3515C32.2697 42.8309 27.6979 45.1973 24.4504 48.9592C21.2029 52.7211 19.5292 57.5894 19.777 62.5529C20.0248 67.5165 22.175 72.1939 25.781 75.6136C29.3871 79.0334 34.1719 80.9327 39.1416 80.9171H85.5136C92.2577 80.8221 98.6928 78.0743 103.425 73.2686C108.158 68.4629 110.807 61.9864 110.798 55.2418Z" fill="white"/>
<path d="M110.572 56.3397C110.573 63.078 107.923 69.5462 103.195 74.3474C98.4674 79.1485 92.0406 81.8973 85.3031 82H38.916C35.7563 82.003 32.6443 81.2296 29.8536 79.7478C27.063 78.2659 24.6793 76.121 22.9121 73.5017C26.1087 75.6806 29.8883 76.8444 33.7568 76.8408H80.1289C84.8585 76.7726 89.4772 75.3984 93.4749 72.87C97.4726 70.3416 100.694 66.7574 102.782 62.5134C104.871 58.2694 105.746 53.5306 105.31 48.8206C104.874 44.1106 103.146 39.6126 100.314 35.8235C103.504 38.2082 106.092 41.3049 107.873 44.8668C109.654 48.4287 110.578 52.3573 110.572 56.3397Z" fill="#CEC1BC"/>
<path d="M110.798 55.2418C110.798 51.872 110.134 48.5352 108.845 45.422C107.555 42.3088 105.665 39.48 103.282 37.0972C100.899 34.7144 98.0706 32.8243 94.9574 31.5348C91.8441 30.2452 88.5074 29.5815 85.1376 29.5815C82.4418 29.5854 79.7628 30.0065 77.1959 30.8299C75.2101 26.4701 71.7972 22.9178 67.5203 20.7592C63.2435 18.6006 58.3585 17.9649 53.6716 18.957C48.9848 19.949 44.7763 22.5095 41.7409 26.2159C38.7054 29.9222 37.0245 34.5528 36.9756 39.3432C36.9798 40.3506 37.0603 41.3562 37.2163 42.3515C32.2697 42.8309 27.6979 45.1973 24.4504 48.9592C21.2029 52.7211 19.5292 57.5894 19.777 62.5529C20.0248 67.5165 22.175 72.1939 25.781 75.6136C29.3871 79.0334 34.1719 80.9327 39.1416 80.9171H85.5137C92.2577 80.8221 98.6928 78.0743 103.425 73.2686C108.158 68.4629 110.807 61.9864 110.798 55.2418Z" stroke="#FF2800" stroke-width="3.00824" stroke-miterlimit="10"/>
<path d="M38.2539 42.2913C41.2772 42.2909 44.2544 43.0326 46.9241 44.4514C49.5938 45.8702 51.8745 47.9226 53.5659 50.4285" stroke="#FF2800" stroke-width="3.00824" stroke-miterlimit="10" stroke-linecap="round"/>
<path d="M84.0245 29.6266C81.1358 29.6287 78.2881 30.3106 75.7117 31.6171C73.1353 32.9236 70.9025 34.818 69.1938 37.1472" stroke="#FF2800" stroke-width="3.00824" stroke-miterlimit="10" stroke-linecap="round"/>
</svg>
