<svg width="48" height="48" viewBox="0 0 48 48" fill="none" xmlns="http://www.w3.org/2000/svg">
<path d="M24.0001 0.666626C11.1434 0.666626 0.666748 11.1433 0.666748 24C0.666748 36.8566 11.1434 47.3333 24.0001 47.3333C36.8567 47.3333 47.3334 36.8566 47.3334 24C47.3334 11.1433 36.8567 0.666626 24.0001 0.666626ZM30.5101 25.2366L22.2734 33.4733C21.9234 33.8233 21.4801 33.9866 21.0367 33.9866C20.5934 33.9866 20.1501 33.8233 19.8001 33.4733C19.4746 33.144 19.2921 32.6996 19.2921 32.2366C19.2921 31.7736 19.4746 31.3293 19.8001 31L26.8001 24L19.8001 17C19.4746 16.6706 19.2921 16.2263 19.2921 15.7633C19.2921 15.3003 19.4746 14.8559 19.8001 14.5266C20.4767 13.85 21.5967 13.85 22.2734 14.5266L30.5101 22.7633C31.2101 23.44 31.2101 24.56 30.5101 25.2366Z" fill="#FF2800"/>
</svg>
