<svg width="47" height="47" viewBox="0 0 47 47" fill="none" xmlns="http://www.w3.org/2000/svg">
<path d="M23.3333 0.000244141C10.4767 0.000244141 0 10.4769 0 23.3336C0 36.1902 10.4767 46.6669 23.3333 46.6669C36.19 46.6669 46.6667 36.1902 46.6667 23.3336C46.6667 10.4769 36.19 0.000244141 23.3333 0.000244141ZM27.51 30.3336C28.1867 31.0102 28.1867 32.1302 27.51 32.8069C27.16 33.1569 26.7167 33.3202 26.2733 33.3202C25.83 33.3202 25.3867 33.1569 25.0367 32.8069L16.8 24.5702C16.4745 24.2409 16.292 23.7966 16.292 23.3336C16.292 22.8706 16.4745 22.4262 16.8 22.0969L25.0367 13.8602C25.7133 13.1836 26.8333 13.1836 27.51 13.8602C28.1867 14.5369 28.1867 15.6569 27.51 16.3336L20.51 23.3336L27.51 30.3336Z" fill="#FF2800"/>
</svg>
